<svg xmlns="http://www.w3.org/2000/svg" viewBox="0 0 500 500"><g id="freepik--background-complete--inject-9"><rect y="382.4" width="500" height="0.25" style="fill:#ebebeb"></rect><rect x="416.78" y="398.49" width="33.12" height="0.25" style="fill:#ebebeb"></rect><rect x="322.53" y="401.21" width="8.69" height="0.25" style="fill:#ebebeb"></rect><rect x="396.59" y="389.21" width="19.19" height="0.25" style="fill:#ebebeb"></rect><rect x="52.46" y="390.89" width="43.19" height="0.25" style="fill:#ebebeb"></rect><rect x="104.56" y="390.89" width="6.33" height="0.25" style="fill:#ebebeb"></rect><rect x="131.47" y="395.11" width="93.68" height="0.25" style="fill:#ebebeb"></rect><path d="M237,337.8H43.91a5.71,5.71,0,0,1-5.7-5.71V60.66A5.71,5.71,0,0,1,43.91,55H237a5.71,5.71,0,0,1,5.71,5.71V332.09A5.71,5.71,0,0,1,237,337.8ZM43.91,55.2a5.46,5.46,0,0,0-5.45,5.46V332.09a5.46,5.46,0,0,0,5.45,5.46H237a5.47,5.47,0,0,0,5.46-5.46V60.66A5.47,5.47,0,0,0,237,55.2Z" style="fill:#ebebeb"></path><path d="M453.31,337.8H260.21a5.72,5.72,0,0,1-5.71-5.71V60.66A5.72,5.72,0,0,1,260.21,55h193.1A5.71,5.71,0,0,1,459,60.66V332.09A5.71,5.71,0,0,1,453.31,337.8ZM260.21,55.2a5.47,5.47,0,0,0-5.46,5.46V332.09a5.47,5.47,0,0,0,5.46,5.46h193.1a5.47,5.47,0,0,0,5.46-5.46V60.66a5.47,5.47,0,0,0-5.46-5.46Z" style="fill:#ebebeb"></path><rect x="66.58" y="75.01" width="366.84" height="266.47" style="fill:#e0e0e0"></rect><rect x="72" y="80" width="357" height="256" style="fill:#f5f5f5"></rect><polygon points="72 274 72 336 429 336 429 266 419 266 419 245 413 245 413 231 405 231 405 210 403 210 403 231 395 231 395 245 389 245 389 266 378 266 378 272 373 272 373 295 372 295 372 262 369 262 369 283 366 283 366 233 364 233 364 254 356 254 356 247 353 247 353 218 351.22 218 351.22 218 347 218 347 189 345 189 345 193 304 193 304 181 297 181 297 135 294 135 294 181 284 181 284 193 280 193 280 253 259 253 259 235 266 235 266 232 259 232 259 227 239 227 239 181 234 181 234 174 210 174 210 181 207 181 207 245 196 245 196 274 190 274 190 251 185 251 185 245 174 245 174 224 168 224 168 210 161 210 161 189 158 189 158 210 151 210 151 224 145 224 145 245 134 245 134 251 129 251 129 274 122 274 122 213 119 213 119 234 110 234 110 274 106 274 106 197 103 197 103 168 100 168 100 178.41 82 186.83 82 197 74 197 74 274 72 274" style="fill:#e6e6e6"></polygon><rect x="319.31" y="196.14" width="2.83" height="2.83" style="fill:#f0f0f0"></rect><rect x="319.31" y="200.89" width="2.83" height="2.83" style="fill:#f0f0f0"></rect><rect x="319.31" y="219.89" width="2.83" height="2.83" style="fill:#f0f0f0"></rect><rect x="319.31" y="224.64" width="2.83" height="2.83" style="fill:#f0f0f0"></rect><rect x="319.31" y="229.39" width="2.83" height="2.83" style="fill:#f0f0f0"></rect><rect x="319.31" y="243.64" width="2.83" height="2.83" style="fill:#f0f0f0"></rect><rect x="319.31" y="248.39" width="2.83" height="2.83" style="fill:#f0f0f0"></rect><rect x="314.81" y="215.14" width="2.83" height="2.83" style="fill:#f0f0f0"></rect><rect x="314.81" y="219.89" width="2.83" height="2.83" style="fill:#f0f0f0"></rect><rect x="314.81" y="224.64" width="2.83" height="2.83" style="fill:#f0f0f0"></rect><rect x="314.81" y="229.39" width="2.83" height="2.83" style="fill:#f0f0f0"></rect><rect x="314.81" y="234.14" width="2.83" height="2.83" style="fill:#f0f0f0"></rect><rect x="314.81" y="243.64" width="2.83" height="2.83" style="fill:#f0f0f0"></rect><rect x="314.81" y="248.39" width="2.83" height="2.83" style="fill:#f0f0f0"></rect><rect x="310.31" y="196.14" width="2.83" height="2.83" style="fill:#f0f0f0"></rect><rect x="310.31" y="200.89" width="2.83" height="2.83" style="fill:#f0f0f0"></rect><rect x="310.31" y="205.64" width="2.83" height="2.83" style="fill:#f0f0f0"></rect><rect x="310.31" y="210.39" width="2.83" height="2.83" style="fill:#f0f0f0"></rect><rect x="310.31" y="215.14" width="2.83" height="2.83" style="fill:#f0f0f0"></rect><rect x="310.31" y="219.89" width="2.83" height="2.83" style="fill:#f0f0f0"></rect><rect x="310.31" y="224.64" width="2.83" height="2.83" style="fill:#f0f0f0"></rect><rect x="310.31" y="229.39" width="2.83" height="2.83" style="fill:#f0f0f0"></rect><rect x="310.31" y="234.14" width="2.83" height="2.83" style="fill:#f0f0f0"></rect><rect x="310.31" y="238.89" width="2.83" height="2.83" style="fill:#f0f0f0"></rect><rect x="310.31" y="248.39" width="2.83" height="2.83" style="fill:#f0f0f0"></rect><rect x="305.81" y="196.14" width="2.83" height="2.83" style="fill:#f0f0f0"></rect><rect x="305.81" y="200.89" width="2.83" height="2.83" style="fill:#f0f0f0"></rect><rect x="305.81" y="205.64" width="2.83" height="2.83" style="fill:#f0f0f0"></rect><rect x="305.81" y="210.39" width="2.83" height="2.83" style="fill:#f0f0f0"></rect><rect x="305.81" y="215.14" width="2.83" height="2.83" style="fill:#f0f0f0"></rect><rect x="305.81" y="219.89" width="2.83" height="2.83" style="fill:#f0f0f0"></rect><rect x="305.81" y="224.64" width="2.83" height="2.83" style="fill:#f0f0f0"></rect><rect x="305.81" y="267.39" width="2.83" height="2.83" style="fill:#f0f0f0"></rect><rect x="301.31" y="196.14" width="2.83" height="2.83" style="fill:#f0f0f0"></rect><rect x="301.31" y="200.89" width="2.83" height="2.83" style="fill:#f0f0f0"></rect><rect x="301.31" y="205.64" width="2.83" height="2.83" style="fill:#f0f0f0"></rect><rect x="301.31" y="210.39" width="2.83" height="2.83" style="fill:#f0f0f0"></rect><rect x="301.31" y="215.14" width="2.83" height="2.83" style="fill:#f0f0f0"></rect><rect x="301.31" y="219.89" width="2.83" height="2.83" style="fill:#f0f0f0"></rect><rect x="301.31" y="224.64" width="2.83" height="2.83" style="fill:#f0f0f0"></rect><rect x="301.31" y="229.39" width="2.83" height="2.83" style="fill:#f0f0f0"></rect><rect x="301.31" y="257.89" width="2.83" height="2.83" style="fill:#f0f0f0"></rect><rect x="301.31" y="262.64" width="2.83" height="2.83" style="fill:#f0f0f0"></rect><rect x="301.31" y="267.39" width="2.83" height="2.83" style="fill:#f0f0f0"></rect><rect x="301.31" y="272.14" width="2.83" height="2.83" style="fill:#f0f0f0"></rect><rect x="301.31" y="291.14" width="2.83" height="2.83" style="fill:#f0f0f0"></rect><rect x="296.81" y="196.14" width="2.83" height="2.83" style="fill:#f0f0f0"></rect><rect x="296.81" y="200.89" width="2.83" height="2.83" style="fill:#f0f0f0"></rect><rect x="296.81" y="205.64" width="2.83" height="2.83" style="fill:#f0f0f0"></rect><rect x="296.81" y="210.39" width="2.83" height="2.83" style="fill:#f0f0f0"></rect><rect x="296.81" y="215.14" width="2.83" height="2.83" style="fill:#f0f0f0"></rect><rect x="296.81" y="219.89" width="2.83" height="2.83" style="fill:#f0f0f0"></rect><rect x="296.81" y="224.64" width="2.83" height="2.83" style="fill:#f0f0f0"></rect><rect x="296.81" y="229.39" width="2.83" height="2.83" style="fill:#f0f0f0"></rect><rect x="296.81" y="234.14" width="2.83" height="2.83" style="fill:#f0f0f0"></rect><rect x="296.81" y="238.89" width="2.83" height="2.83" style="fill:#f0f0f0"></rect><rect x="296.81" y="253.14" width="2.83" height="2.83" style="fill:#f0f0f0"></rect><rect x="296.81" y="257.89" width="2.83" height="2.83" style="fill:#f0f0f0"></rect><rect x="296.81" y="262.64" width="2.83" height="2.83" style="fill:#f0f0f0"></rect><rect x="296.81" y="267.39" width="2.83" height="2.83" style="fill:#f0f0f0"></rect><rect x="296.81" y="272.14" width="2.83" height="2.83" style="fill:#f0f0f0"></rect><rect x="296.81" y="291.14" width="2.83" height="2.83" style="fill:#f0f0f0"></rect><rect x="292.31" y="196.14" width="2.83" height="2.83" style="fill:#f0f0f0"></rect><rect x="292.31" y="200.89" width="2.83" height="2.83" style="fill:#f0f0f0"></rect><rect x="292.31" y="205.64" width="2.83" height="2.83" style="fill:#f0f0f0"></rect><rect x="292.31" y="210.39" width="2.83" height="2.83" style="fill:#f0f0f0"></rect><rect x="292.31" y="215.14" width="2.83" height="2.83" style="fill:#f0f0f0"></rect><rect x="292.31" y="219.89" width="2.83" height="2.83" style="fill:#f0f0f0"></rect><rect x="292.31" y="224.64" width="2.83" height="2.83" style="fill:#f0f0f0"></rect><rect x="292.31" y="229.39" width="2.83" height="2.83" style="fill:#f0f0f0"></rect><rect x="292.31" y="234.14" width="2.83" height="2.83" style="fill:#f0f0f0"></rect><rect x="292.31" y="238.89" width="2.83" height="2.83" style="fill:#f0f0f0"></rect><rect x="292.31" y="243.64" width="2.83" height="2.83" style="fill:#f0f0f0"></rect><rect x="292.31" y="248.39" width="2.83" height="2.83" style="fill:#f0f0f0"></rect><rect x="292.31" y="253.14" width="2.83" height="2.83" style="fill:#f0f0f0"></rect><rect x="292.31" y="257.89" width="2.83" height="2.83" style="fill:#f0f0f0"></rect><rect x="292.31" y="262.64" width="2.83" height="2.83" style="fill:#f0f0f0"></rect><rect x="292.31" y="267.39" width="2.83" height="2.83" style="fill:#f0f0f0"></rect><rect x="292.31" y="272.14" width="2.83" height="2.83" style="fill:#f0f0f0"></rect><rect x="292.31" y="276.89" width="2.83" height="2.83" style="fill:#f0f0f0"></rect><rect x="287.81" y="196.14" width="2.83" height="2.83" style="fill:#f0f0f0"></rect><rect x="287.81" y="200.89" width="2.83" height="2.83" style="fill:#f0f0f0"></rect><rect x="287.81" y="205.64" width="2.83" height="2.83" style="fill:#f0f0f0"></rect><rect x="287.81" y="210.39" width="2.83" height="2.83" style="fill:#f0f0f0"></rect><rect x="287.81" y="215.14" width="2.83" height="2.83" style="fill:#f0f0f0"></rect><rect x="287.81" y="219.89" width="2.83" height="2.83" style="fill:#f0f0f0"></rect><rect x="287.81" y="224.64" width="2.83" height="2.83" style="fill:#f0f0f0"></rect><rect x="287.81" y="229.39" width="2.83" height="2.83" style="fill:#f0f0f0"></rect><rect x="287.81" y="234.14" width="2.83" height="2.83" style="fill:#f0f0f0"></rect><rect x="287.81" y="238.89" width="2.83" height="2.83" style="fill:#f0f0f0"></rect><rect x="287.81" y="253.14" width="2.83" height="2.83" style="fill:#f0f0f0"></rect><rect x="287.81" y="257.89" width="2.83" height="2.83" style="fill:#f0f0f0"></rect><rect x="287.81" y="262.64" width="2.83" height="2.83" style="fill:#f0f0f0"></rect><rect x="287.81" y="267.39" width="2.83" height="2.83" style="fill:#f0f0f0"></rect><rect x="283.31" y="196.14" width="2.83" height="2.83" style="fill:#f0f0f0"></rect><rect x="283.31" y="200.89" width="2.83" height="2.83" style="fill:#f0f0f0"></rect><rect x="283.31" y="205.64" width="2.83" height="2.83" style="fill:#f0f0f0"></rect><rect x="283.31" y="210.39" width="2.83" height="2.83" style="fill:#f0f0f0"></rect><rect x="283.31" y="215.14" width="2.83" height="2.83" style="fill:#f0f0f0"></rect><rect x="283.31" y="219.89" width="2.83" height="2.83" style="fill:#f0f0f0"></rect><rect x="283.31" y="224.64" width="2.83" height="2.83" style="fill:#f0f0f0"></rect><rect x="283.31" y="229.39" width="2.83" height="2.83" style="fill:#f0f0f0"></rect><rect x="283.31" y="234.14" width="2.83" height="2.83" style="fill:#f0f0f0"></rect><rect x="283.31" y="238.89" width="2.83" height="2.83" style="fill:#f0f0f0"></rect><rect x="283.31" y="253.14" width="2.83" height="2.83" style="fill:#f0f0f0"></rect><rect x="283.31" y="257.89" width="2.83" height="2.83" style="fill:#f0f0f0"></rect><rect x="283.31" y="262.64" width="2.83" height="2.83" style="fill:#f0f0f0"></rect><rect x="232.65" y="183.8" width="2.83" height="2.83" style="fill:#f0f0f0"></rect><rect x="232.65" y="188.55" width="2.83" height="2.83" style="fill:#f0f0f0"></rect><rect x="232.65" y="193.3" width="2.83" height="2.83" style="fill:#f0f0f0"></rect><rect x="232.65" y="198.05" width="2.83" height="2.83" style="fill:#f0f0f0"></rect><rect x="232.65" y="202.8" width="2.83" height="2.83" style="fill:#f0f0f0"></rect><rect x="232.65" y="207.55" width="2.83" height="2.83" style="fill:#f0f0f0"></rect><rect x="232.65" y="212.3" width="2.83" height="2.83" style="fill:#f0f0f0"></rect><rect x="232.65" y="217.05" width="2.83" height="2.83" style="fill:#f0f0f0"></rect><rect x="232.65" y="231.3" width="2.83" height="2.83" style="fill:#f0f0f0"></rect><rect x="232.65" y="236.05" width="2.83" height="2.83" style="fill:#f0f0f0"></rect><rect x="228.15" y="183.8" width="2.83" height="2.83" style="fill:#f0f0f0"></rect><rect x="228.15" y="188.55" width="2.83" height="2.83" style="fill:#f0f0f0"></rect><rect x="228.15" y="193.3" width="2.83" height="2.83" style="fill:#f0f0f0"></rect><rect x="228.15" y="198.05" width="2.83" height="2.83" style="fill:#f0f0f0"></rect><rect x="228.15" y="202.8" width="2.83" height="2.83" style="fill:#f0f0f0"></rect><rect x="228.15" y="207.55" width="2.83" height="2.83" style="fill:#f0f0f0"></rect><rect x="228.15" y="212.3" width="2.83" height="2.83" style="fill:#f0f0f0"></rect><rect x="228.15" y="217.05" width="2.83" height="2.83" style="fill:#f0f0f0"></rect><rect x="228.15" y="236.05" width="2.83" height="2.83" style="fill:#f0f0f0"></rect><rect x="223.65" y="183.8" width="2.83" height="2.83" style="fill:#f0f0f0"></rect><rect x="223.65" y="188.55" width="2.83" height="2.83" style="fill:#f0f0f0"></rect><rect x="223.65" y="193.3" width="2.83" height="2.83" style="fill:#f0f0f0"></rect><rect x="223.65" y="198.05" width="2.83" height="2.83" style="fill:#f0f0f0"></rect><rect x="223.65" y="202.8" width="2.83" height="2.83" style="fill:#f0f0f0"></rect><rect x="223.65" y="207.55" width="2.83" height="2.83" style="fill:#f0f0f0"></rect><rect x="223.65" y="212.3" width="2.83" height="2.83" style="fill:#f0f0f0"></rect><rect x="223.65" y="217.05" width="2.83" height="2.83" style="fill:#f0f0f0"></rect><rect x="219.15" y="183.8" width="2.83" height="2.83" style="fill:#f0f0f0"></rect><rect x="219.15" y="188.55" width="2.83" height="2.83" style="fill:#f0f0f0"></rect><rect x="219.15" y="193.3" width="2.83" height="2.83" style="fill:#f0f0f0"></rect><rect x="219.15" y="198.05" width="2.83" height="2.83" style="fill:#f0f0f0"></rect><rect x="219.15" y="202.8" width="2.83" height="2.83" style="fill:#f0f0f0"></rect><rect x="219.15" y="207.55" width="2.83" height="2.83" style="fill:#f0f0f0"></rect><rect x="219.15" y="217.05" width="2.83" height="2.83" style="fill:#f0f0f0"></rect><rect x="219.15" y="221.8" width="2.83" height="2.83" style="fill:#f0f0f0"></rect><rect x="219.15" y="236.05" width="2.83" height="2.83" style="fill:#f0f0f0"></rect><rect x="219.15" y="240.8" width="2.83" height="2.83" style="fill:#f0f0f0"></rect><rect x="219.15" y="245.55" width="2.83" height="2.83" style="fill:#f0f0f0"></rect><rect x="219.15" y="250.3" width="2.83" height="2.83" style="fill:#f0f0f0"></rect><rect x="219.15" y="255.05" width="2.83" height="2.83" style="fill:#f0f0f0"></rect><rect x="219.15" y="259.8" width="2.83" height="2.83" style="fill:#f0f0f0"></rect><rect x="219.15" y="264.55" width="2.83" height="2.83" style="fill:#f0f0f0"></rect><rect x="214.65" y="183.8" width="2.83" height="2.83" style="fill:#f0f0f0"></rect><rect x="214.65" y="188.55" width="2.83" height="2.83" style="fill:#f0f0f0"></rect><rect x="214.65" y="193.3" width="2.83" height="2.83" style="fill:#f0f0f0"></rect><rect x="214.65" y="198.05" width="2.83" height="2.83" style="fill:#f0f0f0"></rect><rect x="214.65" y="202.8" width="2.83" height="2.83" style="fill:#f0f0f0"></rect><rect x="214.65" y="207.55" width="2.83" height="2.83" style="fill:#f0f0f0"></rect><rect x="214.65" y="221.8" width="2.83" height="2.83" style="fill:#f0f0f0"></rect><rect x="214.65" y="226.55" width="2.83" height="2.83" style="fill:#f0f0f0"></rect><rect x="214.65" y="231.3" width="2.83" height="2.83" style="fill:#f0f0f0"></rect><rect x="214.65" y="236.05" width="2.83" height="2.83" style="fill:#f0f0f0"></rect><rect x="214.65" y="240.8" width="2.83" height="2.83" style="fill:#f0f0f0"></rect><rect x="214.65" y="245.55" width="2.83" height="2.83" style="fill:#f0f0f0"></rect><rect x="214.65" y="250.3" width="2.83" height="2.83" style="fill:#f0f0f0"></rect><rect x="214.65" y="255.05" width="2.83" height="2.83" style="fill:#f0f0f0"></rect><rect x="214.65" y="259.8" width="2.83" height="2.83" style="fill:#f0f0f0"></rect><rect x="214.65" y="264.55" width="2.83" height="2.83" style="fill:#f0f0f0"></rect><rect x="214.65" y="269.3" width="2.83" height="2.83" style="fill:#f0f0f0"></rect><rect x="214.65" y="278.8" width="2.83" height="2.83" style="fill:#f0f0f0"></rect><rect x="210.15" y="183.8" width="2.83" height="2.83" style="fill:#f0f0f0"></rect><rect x="210.15" y="188.55" width="2.83" height="2.83" style="fill:#f0f0f0"></rect><rect x="210.15" y="193.3" width="2.83" height="2.83" style="fill:#f0f0f0"></rect><rect x="210.15" y="198.05" width="2.83" height="2.83" style="fill:#f0f0f0"></rect><rect x="210.15" y="202.8" width="2.83" height="2.83" style="fill:#f0f0f0"></rect><rect x="210.15" y="207.55" width="2.83" height="2.83" style="fill:#f0f0f0"></rect><rect x="210.15" y="221.8" width="2.83" height="2.83" style="fill:#f0f0f0"></rect><rect x="210.15" y="226.55" width="2.83" height="2.83" style="fill:#f0f0f0"></rect><rect x="210.15" y="231.3" width="2.83" height="2.83" style="fill:#f0f0f0"></rect><rect x="210.15" y="236.05" width="2.83" height="2.83" style="fill:#f0f0f0"></rect><rect x="210.15" y="250.3" width="2.83" height="2.83" style="fill:#f0f0f0"></rect><rect x="210.15" y="255.05" width="2.83" height="2.83" style="fill:#f0f0f0"></rect><rect x="210.15" y="259.8" width="2.83" height="2.83" style="fill:#f0f0f0"></rect><rect x="210.15" y="264.55" width="2.83" height="2.83" style="fill:#f0f0f0"></rect><rect x="210.15" y="269.3" width="2.83" height="2.83" style="fill:#f0f0f0"></rect><rect x="210.15" y="278.8" width="2.83" height="2.83" style="fill:#f0f0f0"></rect><rect x="210.15" y="283.55" width="2.83" height="2.83" style="fill:#f0f0f0"></rect><rect x="169.31" y="227.97" width="2.83" height="2.83" style="fill:#f0f0f0"></rect><rect x="169.31" y="232.72" width="2.83" height="2.83" style="fill:#f0f0f0"></rect><rect x="169.31" y="237.47" width="2.83" height="2.83" style="fill:#f0f0f0"></rect><rect x="169.31" y="242.22" width="2.83" height="2.83" style="fill:#f0f0f0"></rect><rect x="169.31" y="246.97" width="2.83" height="2.83" style="fill:#f0f0f0"></rect><rect x="169.31" y="251.72" width="2.83" height="2.83" style="fill:#f0f0f0"></rect><rect x="169.31" y="256.47" width="2.83" height="2.83" style="fill:#f0f0f0"></rect><rect x="169.31" y="270.72" width="2.83" height="2.83" style="fill:#f0f0f0"></rect><rect x="169.31" y="275.47" width="2.83" height="2.83" style="fill:#f0f0f0"></rect><rect x="169.31" y="280.22" width="2.83" height="2.83" style="fill:#f0f0f0"></rect><rect x="164.81" y="227.97" width="2.83" height="2.83" style="fill:#f0f0f0"></rect><rect x="164.81" y="232.72" width="2.83" height="2.83" style="fill:#f0f0f0"></rect><rect x="164.81" y="237.47" width="2.83" height="2.83" style="fill:#f0f0f0"></rect><rect x="164.81" y="242.22" width="2.83" height="2.83" style="fill:#f0f0f0"></rect><rect x="164.81" y="246.97" width="2.83" height="2.83" style="fill:#f0f0f0"></rect><rect x="164.81" y="251.72" width="2.83" height="2.83" style="fill:#f0f0f0"></rect><rect x="164.81" y="256.47" width="2.83" height="2.83" style="fill:#f0f0f0"></rect><rect x="160.31" y="227.97" width="2.83" height="2.83" style="fill:#f0f0f0"></rect><rect x="160.31" y="232.72" width="2.83" height="2.83" style="fill:#f0f0f0"></rect><rect x="160.31" y="237.47" width="2.83" height="2.83" style="fill:#f0f0f0"></rect><rect x="160.31" y="242.22" width="2.83" height="2.83" style="fill:#f0f0f0"></rect><rect x="160.31" y="246.97" width="2.83" height="2.83" style="fill:#f0f0f0"></rect><rect x="160.31" y="251.72" width="2.83" height="2.83" style="fill:#f0f0f0"></rect><rect x="160.31" y="256.47" width="2.83" height="2.83" style="fill:#f0f0f0"></rect><rect x="155.81" y="227.97" width="2.83" height="2.83" style="fill:#f0f0f0"></rect><rect x="155.81" y="232.72" width="2.83" height="2.83" style="fill:#f0f0f0"></rect><rect x="155.81" y="237.47" width="2.83" height="2.83" style="fill:#f0f0f0"></rect><rect x="155.81" y="242.22" width="2.83" height="2.83" style="fill:#f0f0f0"></rect><rect x="155.81" y="246.97" width="2.83" height="2.83" style="fill:#f0f0f0"></rect><rect x="155.81" y="251.72" width="2.83" height="2.83" style="fill:#f0f0f0"></rect><rect x="155.81" y="256.47" width="2.83" height="2.83" style="fill:#f0f0f0"></rect><rect x="155.81" y="261.22" width="2.83" height="2.83" style="fill:#f0f0f0"></rect><rect x="155.81" y="265.97" width="2.83" height="2.83" style="fill:#f0f0f0"></rect><rect x="155.81" y="270.72" width="2.83" height="2.83" style="fill:#f0f0f0"></rect><rect x="155.81" y="275.47" width="2.83" height="2.83" style="fill:#f0f0f0"></rect><rect x="151.31" y="227.97" width="2.83" height="2.83" style="fill:#f0f0f0"></rect><rect x="151.31" y="232.72" width="2.83" height="2.83" style="fill:#f0f0f0"></rect><rect x="151.31" y="237.47" width="2.83" height="2.83" style="fill:#f0f0f0"></rect><rect x="151.31" y="242.22" width="2.83" height="2.83" style="fill:#f0f0f0"></rect><rect x="151.31" y="246.97" width="2.83" height="2.83" style="fill:#f0f0f0"></rect><rect x="151.31" y="251.72" width="2.83" height="2.83" style="fill:#f0f0f0"></rect><rect x="151.31" y="256.47" width="2.83" height="2.83" style="fill:#f0f0f0"></rect><rect x="151.31" y="261.22" width="2.83" height="2.83" style="fill:#f0f0f0"></rect><rect x="151.31" y="265.97" width="2.83" height="2.83" style="fill:#f0f0f0"></rect><rect x="151.31" y="270.72" width="2.83" height="2.83" style="fill:#f0f0f0"></rect><rect x="151.31" y="275.47" width="2.83" height="2.83" style="fill:#f0f0f0"></rect><rect x="151.31" y="280.22" width="2.83" height="2.83" style="fill:#f0f0f0"></rect><rect x="151.31" y="294.47" width="2.83" height="2.83" style="fill:#f0f0f0"></rect><rect x="151.31" y="299.22" width="2.83" height="2.83" style="fill:#f0f0f0"></rect><rect x="146.81" y="227.97" width="2.83" height="2.83" style="fill:#f0f0f0"></rect><rect x="146.81" y="232.72" width="2.83" height="2.83" style="fill:#f0f0f0"></rect><rect x="146.81" y="237.47" width="2.83" height="2.83" style="fill:#f0f0f0"></rect><rect x="146.81" y="251.72" width="2.83" height="2.83" style="fill:#f0f0f0"></rect><rect x="146.81" y="256.47" width="2.83" height="2.83" style="fill:#f0f0f0"></rect><rect x="146.81" y="261.22" width="2.83" height="2.83" style="fill:#f0f0f0"></rect><rect x="146.81" y="265.97" width="2.83" height="2.83" style="fill:#f0f0f0"></rect><rect x="146.81" y="270.72" width="2.83" height="2.83" style="fill:#f0f0f0"></rect><rect x="146.81" y="275.47" width="2.83" height="2.83" style="fill:#f0f0f0"></rect><rect x="146.81" y="280.22" width="2.83" height="2.83" style="fill:#f0f0f0"></rect><rect x="146.81" y="294.47" width="2.83" height="2.83" style="fill:#f0f0f0"></rect><rect x="146.81" y="299.22" width="2.83" height="2.83" style="fill:#f0f0f0"></rect><rect x="146.81" y="303.97" width="2.83" height="2.83" style="fill:#f0f0f0"></rect><rect x="99.65" y="199.47" width="2.83" height="2.83" style="fill:#f0f0f0"></rect><rect x="99.65" y="204.22" width="2.83" height="2.83" style="fill:#f0f0f0"></rect><rect x="99.65" y="208.97" width="2.83" height="2.83" style="fill:#f0f0f0"></rect><rect x="99.65" y="213.72" width="2.83" height="2.83" style="fill:#f0f0f0"></rect><rect x="99.65" y="218.47" width="2.83" height="2.83" style="fill:#f0f0f0"></rect><rect x="99.65" y="223.22" width="2.83" height="2.83" style="fill:#f0f0f0"></rect><rect x="99.65" y="227.97" width="2.83" height="2.83" style="fill:#f0f0f0"></rect><rect x="99.65" y="232.72" width="2.83" height="2.83" style="fill:#f0f0f0"></rect><rect x="99.65" y="237.47" width="2.83" height="2.83" style="fill:#f0f0f0"></rect><rect x="99.65" y="242.22" width="2.83" height="2.83" style="fill:#f0f0f0"></rect><rect x="99.65" y="246.97" width="2.83" height="2.83" style="fill:#f0f0f0"></rect><rect x="99.65" y="251.72" width="2.83" height="2.83" style="fill:#f0f0f0"></rect><rect x="99.65" y="256.47" width="2.83" height="2.83" style="fill:#f0f0f0"></rect><rect x="99.65" y="261.22" width="2.83" height="2.83" style="fill:#f0f0f0"></rect><rect x="99.65" y="265.97" width="2.83" height="2.83" style="fill:#f0f0f0"></rect><rect x="99.65" y="270.72" width="2.83" height="2.83" style="fill:#f0f0f0"></rect><rect x="99.65" y="275.47" width="2.83" height="2.83" style="fill:#f0f0f0"></rect><rect x="99.65" y="280.22" width="2.83" height="2.83" style="fill:#f0f0f0"></rect><rect x="99.65" y="284.97" width="2.83" height="2.83" style="fill:#f0f0f0"></rect><rect x="99.65" y="289.72" width="2.83" height="2.83" style="fill:#f0f0f0"></rect><rect x="99.65" y="294.47" width="2.83" height="2.83" style="fill:#f0f0f0"></rect><rect x="99.65" y="299.22" width="2.83" height="2.83" style="fill:#f0f0f0"></rect><rect x="99.65" y="303.97" width="2.83" height="2.83" style="fill:#f0f0f0"></rect><rect x="95.15" y="199.47" width="2.83" height="2.83" style="fill:#f0f0f0"></rect><rect x="95.15" y="204.22" width="2.83" height="2.83" style="fill:#f0f0f0"></rect><rect x="95.15" y="208.97" width="2.83" height="2.83" style="fill:#f0f0f0"></rect><rect x="95.15" y="213.72" width="2.83" height="2.83" style="fill:#f0f0f0"></rect><rect x="95.15" y="218.47" width="2.83" height="2.83" style="fill:#f0f0f0"></rect><rect x="95.15" y="223.22" width="2.83" height="2.83" style="fill:#f0f0f0"></rect><rect x="95.15" y="227.97" width="2.83" height="2.83" style="fill:#f0f0f0"></rect><rect x="95.15" y="232.72" width="2.83" height="2.83" style="fill:#f0f0f0"></rect><rect x="95.15" y="237.47" width="2.83" height="2.83" style="fill:#f0f0f0"></rect><rect x="95.15" y="242.22" width="2.83" height="2.83" style="fill:#f0f0f0"></rect><rect x="95.15" y="246.97" width="2.83" height="2.83" style="fill:#f0f0f0"></rect><rect x="95.15" y="251.72" width="2.83" height="2.83" style="fill:#f0f0f0"></rect><rect x="95.15" y="256.47" width="2.83" height="2.83" style="fill:#f0f0f0"></rect><rect x="95.15" y="261.22" width="2.83" height="2.83" style="fill:#f0f0f0"></rect><rect x="95.15" y="265.97" width="2.83" height="2.83" style="fill:#f0f0f0"></rect><rect x="95.15" y="270.72" width="2.83" height="2.83" style="fill:#f0f0f0"></rect><rect x="95.15" y="275.47" width="2.83" height="2.83" style="fill:#f0f0f0"></rect><rect x="95.15" y="280.22" width="2.83" height="2.83" style="fill:#f0f0f0"></rect><rect x="95.15" y="284.97" width="2.83" height="2.83" style="fill:#f0f0f0"></rect><rect x="90.65" y="199.47" width="2.83" height="2.83" style="fill:#f0f0f0"></rect><rect x="90.65" y="204.22" width="2.83" height="2.83" style="fill:#f0f0f0"></rect><rect x="90.65" y="208.97" width="2.83" height="2.83" style="fill:#f0f0f0"></rect><rect x="90.65" y="213.72" width="2.83" height="2.83" style="fill:#f0f0f0"></rect><rect x="90.65" y="218.47" width="2.83" height="2.83" style="fill:#f0f0f0"></rect><rect x="90.65" y="223.22" width="2.83" height="2.83" style="fill:#f0f0f0"></rect><rect x="90.65" y="227.97" width="2.83" height="2.83" style="fill:#f0f0f0"></rect><rect x="90.65" y="232.72" width="2.83" height="2.83" style="fill:#f0f0f0"></rect><rect x="90.65" y="237.47" width="2.83" height="2.83" style="fill:#f0f0f0"></rect><rect x="90.65" y="242.22" width="2.83" height="2.83" style="fill:#f0f0f0"></rect><rect x="90.65" y="246.97" width="2.83" height="2.83" style="fill:#f0f0f0"></rect><rect x="90.65" y="251.72" width="2.83" height="2.83" style="fill:#f0f0f0"></rect><rect x="90.65" y="256.47" width="2.83" height="2.83" style="fill:#f0f0f0"></rect><rect x="90.65" y="261.22" width="2.83" height="2.83" style="fill:#f0f0f0"></rect><rect x="90.65" y="265.97" width="2.83" height="2.83" style="fill:#f0f0f0"></rect><rect x="90.65" y="270.72" width="2.83" height="2.83" style="fill:#f0f0f0"></rect><rect x="90.65" y="275.47" width="2.83" height="2.83" style="fill:#f0f0f0"></rect><rect x="90.65" y="280.22" width="2.83" height="2.83" style="fill:#f0f0f0"></rect><rect x="90.65" y="284.97" width="2.83" height="2.83" style="fill:#f0f0f0"></rect><rect x="86.15" y="199.47" width="2.83" height="2.83" style="fill:#f0f0f0"></rect><rect x="86.15" y="204.22" width="2.83" height="2.83" style="fill:#f0f0f0"></rect><rect x="86.15" y="208.97" width="2.83" height="2.83" style="fill:#f0f0f0"></rect><rect x="86.15" y="213.72" width="2.83" height="2.83" style="fill:#f0f0f0"></rect><rect x="86.15" y="218.47" width="2.83" height="2.83" style="fill:#f0f0f0"></rect><rect x="86.15" y="223.22" width="2.83" height="2.83" style="fill:#f0f0f0"></rect><rect x="86.15" y="227.97" width="2.83" height="2.83" style="fill:#f0f0f0"></rect><rect x="86.15" y="232.72" width="2.83" height="2.83" style="fill:#f0f0f0"></rect><rect x="86.15" y="237.47" width="2.83" height="2.83" style="fill:#f0f0f0"></rect><rect x="86.15" y="242.22" width="2.83" height="2.83" style="fill:#f0f0f0"></rect><rect x="86.15" y="246.97" width="2.83" height="2.83" style="fill:#f0f0f0"></rect><rect x="86.15" y="251.72" width="2.83" height="2.83" style="fill:#f0f0f0"></rect><rect x="86.15" y="256.47" width="2.83" height="2.83" style="fill:#f0f0f0"></rect><rect x="86.15" y="261.22" width="2.83" height="2.83" style="fill:#f0f0f0"></rect><rect x="86.15" y="265.97" width="2.83" height="2.83" style="fill:#f0f0f0"></rect><rect x="81.65" y="199.47" width="2.83" height="2.83" style="fill:#f0f0f0"></rect><rect x="81.65" y="204.22" width="2.83" height="2.83" style="fill:#f0f0f0"></rect><rect x="81.65" y="208.97" width="2.83" height="2.83" style="fill:#f0f0f0"></rect><rect x="81.65" y="213.72" width="2.83" height="2.83" style="fill:#f0f0f0"></rect><rect x="81.65" y="218.47" width="2.83" height="2.83" style="fill:#f0f0f0"></rect><rect x="81.65" y="223.22" width="2.83" height="2.83" style="fill:#f0f0f0"></rect><rect x="81.65" y="227.97" width="2.83" height="2.83" style="fill:#f0f0f0"></rect><rect x="81.65" y="232.72" width="2.83" height="2.83" style="fill:#f0f0f0"></rect><rect x="81.65" y="237.47" width="2.83" height="2.83" style="fill:#f0f0f0"></rect><rect x="81.65" y="242.22" width="2.83" height="2.83" style="fill:#f0f0f0"></rect><rect x="81.65" y="246.97" width="2.83" height="2.83" style="fill:#f0f0f0"></rect><rect x="81.65" y="251.72" width="2.83" height="2.83" style="fill:#f0f0f0"></rect><rect x="81.65" y="256.47" width="2.83" height="2.83" style="fill:#f0f0f0"></rect><rect x="77.15" y="199.47" width="2.83" height="2.83" style="fill:#f0f0f0"></rect><rect x="77.15" y="204.22" width="2.83" height="2.83" style="fill:#f0f0f0"></rect><rect x="77.15" y="208.97" width="2.83" height="2.83" style="fill:#f0f0f0"></rect><rect x="77.15" y="213.72" width="2.83" height="2.83" style="fill:#f0f0f0"></rect><rect x="77.15" y="218.47" width="2.83" height="2.83" style="fill:#f0f0f0"></rect><rect x="77.15" y="223.22" width="2.83" height="2.83" style="fill:#f0f0f0"></rect><rect x="77.15" y="227.97" width="2.83" height="2.83" style="fill:#f0f0f0"></rect><rect x="77.15" y="232.72" width="2.83" height="2.83" style="fill:#f0f0f0"></rect><rect x="77.15" y="237.47" width="2.83" height="2.83" style="fill:#f0f0f0"></rect><rect x="77.15" y="242.22" width="2.83" height="2.83" style="fill:#f0f0f0"></rect><rect x="77.15" y="246.97" width="2.83" height="2.83" style="fill:#f0f0f0"></rect><rect x="77.15" y="251.72" width="2.83" height="2.83" style="fill:#f0f0f0"></rect><rect x="407.81" y="234.14" width="2.83" height="2.83" style="fill:#f0f0f0"></rect><rect x="407.81" y="238.89" width="2.83" height="2.83" style="fill:#f0f0f0"></rect><rect x="407.81" y="243.64" width="2.83" height="2.83" style="fill:#f0f0f0"></rect><rect x="407.81" y="248.39" width="2.83" height="2.83" style="fill:#f0f0f0"></rect><rect x="407.81" y="253.14" width="2.83" height="2.83" style="fill:#f0f0f0"></rect><rect x="407.81" y="257.89" width="2.83" height="2.83" style="fill:#f0f0f0"></rect><rect x="407.81" y="262.64" width="2.83" height="2.83" style="fill:#f0f0f0"></rect><rect x="407.81" y="267.39" width="2.83" height="2.83" style="fill:#f0f0f0"></rect><rect x="407.81" y="272.14" width="2.83" height="2.83" style="fill:#f0f0f0"></rect><rect x="407.81" y="276.89" width="2.83" height="2.83" style="fill:#f0f0f0"></rect><rect x="407.81" y="281.64" width="2.83" height="2.83" style="fill:#f0f0f0"></rect><rect x="407.81" y="286.39" width="2.83" height="2.83" style="fill:#f0f0f0"></rect><rect x="407.81" y="291.14" width="2.83" height="2.83" style="fill:#f0f0f0"></rect><rect x="407.81" y="295.89" width="2.83" height="2.83" style="fill:#f0f0f0"></rect><rect x="407.81" y="300.64" width="2.83" height="2.83" style="fill:#f0f0f0"></rect><rect x="407.81" y="305.39" width="2.83" height="2.83" style="fill:#f0f0f0"></rect><rect x="407.81" y="310.14" width="2.83" height="2.83" style="fill:#f0f0f0"></rect><rect x="407.81" y="314.89" width="2.83" height="2.83" style="fill:#f0f0f0"></rect><rect x="407.81" y="319.64" width="2.83" height="2.83" style="fill:#f0f0f0"></rect><rect x="407.81" y="324.39" width="2.83" height="2.83" style="fill:#f0f0f0"></rect><rect x="403.31" y="234.14" width="2.83" height="2.83" style="fill:#f0f0f0"></rect><rect x="403.31" y="238.89" width="2.83" height="2.83" style="fill:#f0f0f0"></rect><rect x="403.31" y="243.64" width="2.83" height="2.83" style="fill:#f0f0f0"></rect><rect x="403.31" y="248.39" width="2.83" height="2.83" style="fill:#f0f0f0"></rect><rect x="403.31" y="253.14" width="2.83" height="2.83" style="fill:#f0f0f0"></rect><rect x="403.31" y="257.89" width="2.83" height="2.83" style="fill:#f0f0f0"></rect><rect x="403.31" y="262.64" width="2.83" height="2.83" style="fill:#f0f0f0"></rect><rect x="403.31" y="267.39" width="2.83" height="2.83" style="fill:#f0f0f0"></rect><rect x="403.31" y="272.14" width="2.83" height="2.83" style="fill:#f0f0f0"></rect><rect x="403.31" y="276.89" width="2.83" height="2.83" style="fill:#f0f0f0"></rect><rect x="403.31" y="281.64" width="2.83" height="2.83" style="fill:#f0f0f0"></rect><rect x="403.31" y="286.39" width="2.83" height="2.83" style="fill:#f0f0f0"></rect><rect x="403.31" y="291.14" width="2.83" height="2.83" style="fill:#f0f0f0"></rect><rect x="403.31" y="295.89" width="2.83" height="2.83" style="fill:#f0f0f0"></rect><rect x="403.31" y="300.64" width="2.83" height="2.83" style="fill:#f0f0f0"></rect><rect x="403.31" y="305.39" width="2.83" height="2.83" style="fill:#f0f0f0"></rect><rect x="403.31" y="310.14" width="2.83" height="2.83" style="fill:#f0f0f0"></rect><rect x="403.31" y="314.89" width="2.83" height="2.83" style="fill:#f0f0f0"></rect><rect x="398.81" y="234.14" width="2.83" height="2.83" style="fill:#f0f0f0"></rect><rect x="398.81" y="238.89" width="2.83" height="2.83" style="fill:#f0f0f0"></rect><rect x="398.81" y="243.64" width="2.83" height="2.83" style="fill:#f0f0f0"></rect><rect x="398.81" y="248.39" width="2.83" height="2.83" style="fill:#f0f0f0"></rect><rect x="398.81" y="253.14" width="2.83" height="2.83" style="fill:#f0f0f0"></rect><rect x="398.81" y="257.89" width="2.83" height="2.83" style="fill:#f0f0f0"></rect><rect x="398.81" y="262.64" width="2.83" height="2.83" style="fill:#f0f0f0"></rect><rect x="398.81" y="267.39" width="2.83" height="2.83" style="fill:#f0f0f0"></rect><rect x="398.81" y="272.14" width="2.83" height="2.83" style="fill:#f0f0f0"></rect><rect x="398.81" y="276.89" width="2.83" height="2.83" style="fill:#f0f0f0"></rect><rect x="398.81" y="281.64" width="2.83" height="2.83" style="fill:#f0f0f0"></rect><rect x="398.81" y="286.39" width="2.83" height="2.83" style="fill:#f0f0f0"></rect><rect x="398.81" y="291.14" width="2.83" height="2.83" style="fill:#f0f0f0"></rect><rect x="398.81" y="295.89" width="2.83" height="2.83" style="fill:#f0f0f0"></rect><rect x="398.81" y="300.64" width="2.83" height="2.83" style="fill:#f0f0f0"></rect><rect x="398.81" y="305.39" width="2.83" height="2.83" style="fill:#f0f0f0"></rect><rect x="398.81" y="310.14" width="2.83" height="2.83" style="fill:#f0f0f0"></rect><rect x="398.81" y="314.89" width="2.83" height="2.83" style="fill:#f0f0f0"></rect><rect x="424.65" y="268.8" width="2.83" height="2.83" style="fill:#f0f0f0"></rect><rect x="424.65" y="273.55" width="2.83" height="2.83" style="fill:#f0f0f0"></rect><rect x="424.65" y="278.3" width="2.83" height="2.83" style="fill:#f0f0f0"></rect><rect x="424.65" y="283.05" width="2.83" height="2.83" style="fill:#f0f0f0"></rect><rect x="424.65" y="287.8" width="2.83" height="2.83" style="fill:#f0f0f0"></rect><rect x="424.65" y="292.55" width="2.83" height="2.83" style="fill:#f0f0f0"></rect><rect x="424.65" y="297.3" width="2.83" height="2.83" style="fill:#f0f0f0"></rect><rect x="424.65" y="302.05" width="2.83" height="2.83" style="fill:#f0f0f0"></rect><rect x="424.65" y="306.8" width="2.83" height="2.83" style="fill:#f0f0f0"></rect><rect x="424.65" y="311.55" width="2.83" height="2.83" style="fill:#f0f0f0"></rect><rect x="424.65" y="316.3" width="2.83" height="2.83" style="fill:#f0f0f0"></rect><rect x="424.65" y="321.05" width="2.83" height="2.83" style="fill:#f0f0f0"></rect><rect x="424.65" y="325.8" width="2.83" height="2.83" style="fill:#f0f0f0"></rect><rect x="420.15" y="268.8" width="2.83" height="2.83" style="fill:#f0f0f0"></rect><rect x="420.15" y="273.55" width="2.83" height="2.83" style="fill:#f0f0f0"></rect><rect x="420.15" y="278.3" width="2.83" height="2.83" style="fill:#f0f0f0"></rect><rect x="420.15" y="283.05" width="2.83" height="2.83" style="fill:#f0f0f0"></rect><rect x="420.15" y="287.8" width="2.83" height="2.83" style="fill:#f0f0f0"></rect><rect x="420.15" y="292.55" width="2.83" height="2.83" style="fill:#f0f0f0"></rect><rect x="420.15" y="297.3" width="2.83" height="2.83" style="fill:#f0f0f0"></rect><rect x="420.15" y="302.05" width="2.83" height="2.83" style="fill:#f0f0f0"></rect><rect x="420.15" y="306.8" width="2.83" height="2.83" style="fill:#f0f0f0"></rect><rect x="420.15" y="311.55" width="2.83" height="2.83" style="fill:#f0f0f0"></rect><rect x="420.15" y="316.3" width="2.83" height="2.83" style="fill:#f0f0f0"></rect><rect x="420.15" y="321.05" width="2.83" height="2.83" style="fill:#f0f0f0"></rect><rect x="420.15" y="325.8" width="2.83" height="2.83" style="fill:#f0f0f0"></rect><rect x="415.65" y="268.8" width="2.83" height="2.83" style="fill:#f0f0f0"></rect><rect x="415.65" y="273.55" width="2.83" height="2.83" style="fill:#f0f0f0"></rect><rect x="415.65" y="278.3" width="2.83" height="2.83" style="fill:#f0f0f0"></rect><rect x="415.65" y="283.05" width="2.83" height="2.83" style="fill:#f0f0f0"></rect><rect x="415.65" y="287.8" width="2.83" height="2.83" style="fill:#f0f0f0"></rect><rect x="415.65" y="292.55" width="2.83" height="2.83" style="fill:#f0f0f0"></rect><rect x="415.65" y="297.3" width="2.83" height="2.83" style="fill:#f0f0f0"></rect><rect x="415.65" y="302.05" width="2.83" height="2.83" style="fill:#f0f0f0"></rect><rect x="415.65" y="306.8" width="2.83" height="2.83" style="fill:#f0f0f0"></rect><rect x="415.65" y="311.55" width="2.83" height="2.83" style="fill:#f0f0f0"></rect><rect x="415.65" y="316.3" width="2.83" height="2.83" style="fill:#f0f0f0"></rect><rect x="415.65" y="321.05" width="2.83" height="2.83" style="fill:#f0f0f0"></rect><rect x="415.65" y="325.8" width="2.83" height="2.83" style="fill:#f0f0f0"></rect><rect x="415.65" y="330.55" width="2.83" height="2.83" style="fill:#f0f0f0"></rect><rect x="390.65" y="270.22" width="2.83" height="2.83" style="fill:#f0f0f0"></rect><rect x="390.65" y="274.97" width="2.83" height="2.83" style="fill:#f0f0f0"></rect><rect x="390.65" y="279.72" width="2.83" height="2.83" style="fill:#f0f0f0"></rect><rect x="390.65" y="284.47" width="2.83" height="2.83" style="fill:#f0f0f0"></rect><rect x="390.65" y="289.22" width="2.83" height="2.83" style="fill:#f0f0f0"></rect><rect x="390.65" y="293.97" width="2.83" height="2.83" style="fill:#f0f0f0"></rect><rect x="390.65" y="298.72" width="2.83" height="2.83" style="fill:#f0f0f0"></rect><rect x="390.65" y="303.47" width="2.83" height="2.83" style="fill:#f0f0f0"></rect><rect x="390.65" y="308.22" width="2.83" height="2.83" style="fill:#f0f0f0"></rect><rect x="390.65" y="312.97" width="2.83" height="2.83" style="fill:#f0f0f0"></rect><rect x="390.65" y="327.22" width="2.83" height="2.83" style="fill:#f0f0f0"></rect><rect x="386.15" y="270.22" width="2.83" height="2.83" style="fill:#f0f0f0"></rect><rect x="386.15" y="274.97" width="2.83" height="2.83" style="fill:#f0f0f0"></rect><rect x="386.15" y="279.72" width="2.83" height="2.83" style="fill:#f0f0f0"></rect><rect x="386.15" y="284.47" width="2.83" height="2.83" style="fill:#f0f0f0"></rect><rect x="386.15" y="289.22" width="2.83" height="2.83" style="fill:#f0f0f0"></rect><rect x="386.15" y="293.97" width="2.83" height="2.83" style="fill:#f0f0f0"></rect><rect x="386.15" y="298.72" width="2.83" height="2.83" style="fill:#f0f0f0"></rect><rect x="386.15" y="303.47" width="2.83" height="2.83" style="fill:#f0f0f0"></rect><rect x="386.15" y="308.22" width="2.83" height="2.83" style="fill:#f0f0f0"></rect><rect x="386.15" y="322.47" width="2.83" height="2.83" style="fill:#f0f0f0"></rect><rect x="386.15" y="327.22" width="2.83" height="2.83" style="fill:#f0f0f0"></rect><rect x="381.65" y="270.22" width="2.83" height="2.83" style="fill:#f0f0f0"></rect><rect x="381.65" y="274.97" width="2.83" height="2.83" style="fill:#f0f0f0"></rect><rect x="381.65" y="279.72" width="2.83" height="2.83" style="fill:#f0f0f0"></rect><rect x="381.65" y="284.47" width="2.83" height="2.83" style="fill:#f0f0f0"></rect><rect x="381.65" y="289.22" width="2.83" height="2.83" style="fill:#f0f0f0"></rect><rect x="381.65" y="293.97" width="2.83" height="2.83" style="fill:#f0f0f0"></rect><rect x="381.65" y="298.72" width="2.83" height="2.83" style="fill:#f0f0f0"></rect><rect x="381.65" y="303.47" width="2.83" height="2.83" style="fill:#f0f0f0"></rect><rect x="381.65" y="317.72" width="2.83" height="2.83" style="fill:#f0f0f0"></rect><rect x="381.65" y="322.47" width="2.83" height="2.83" style="fill:#f0f0f0"></rect><rect x="381.65" y="327.22" width="2.83" height="2.83" style="fill:#f0f0f0"></rect><rect x="339.81" y="198.05" width="2.83" height="2.83" style="fill:#f0f0f0"></rect><rect x="339.81" y="202.8" width="2.83" height="2.83" style="fill:#f0f0f0"></rect><rect x="339.81" y="207.55" width="2.83" height="2.83" style="fill:#f0f0f0"></rect><rect x="339.81" y="212.3" width="2.83" height="2.83" style="fill:#f0f0f0"></rect><rect x="339.81" y="217.05" width="2.83" height="2.83" style="fill:#f0f0f0"></rect><rect x="339.81" y="221.8" width="2.83" height="2.83" style="fill:#f0f0f0"></rect><rect x="339.81" y="226.55" width="2.83" height="2.83" style="fill:#f0f0f0"></rect><rect x="339.81" y="231.3" width="2.83" height="2.83" style="fill:#f0f0f0"></rect><rect x="339.81" y="236.05" width="2.83" height="2.83" style="fill:#f0f0f0"></rect><rect x="339.81" y="240.8" width="2.83" height="2.83" style="fill:#f0f0f0"></rect><rect x="339.81" y="245.55" width="2.83" height="2.83" style="fill:#f0f0f0"></rect><rect x="339.81" y="250.3" width="2.83" height="2.83" style="fill:#f0f0f0"></rect><rect x="339.81" y="255.05" width="2.83" height="2.83" style="fill:#f0f0f0"></rect><rect x="339.81" y="259.8" width="2.83" height="2.83" style="fill:#f0f0f0"></rect><rect x="339.81" y="264.55" width="2.83" height="2.83" style="fill:#f0f0f0"></rect><rect x="339.81" y="269.3" width="2.83" height="2.83" style="fill:#f0f0f0"></rect><rect x="339.81" y="274.05" width="2.83" height="2.83" style="fill:#f0f0f0"></rect><rect x="339.81" y="283.55" width="2.83" height="2.83" style="fill:#f0f0f0"></rect><rect x="339.81" y="288.3" width="2.83" height="2.83" style="fill:#f0f0f0"></rect><rect x="339.81" y="293.05" width="2.83" height="2.83" style="fill:#f0f0f0"></rect><rect x="339.81" y="297.8" width="2.83" height="2.83" style="fill:#f0f0f0"></rect><rect x="339.81" y="302.55" width="2.83" height="2.83" style="fill:#f0f0f0"></rect><rect x="335.31" y="198.05" width="2.83" height="2.83" style="fill:#f0f0f0"></rect><rect x="335.31" y="202.8" width="2.83" height="2.83" style="fill:#f0f0f0"></rect><rect x="335.31" y="207.55" width="2.83" height="2.83" style="fill:#f0f0f0"></rect><rect x="335.31" y="212.3" width="2.83" height="2.83" style="fill:#f0f0f0"></rect><rect x="335.31" y="217.05" width="2.83" height="2.83" style="fill:#f0f0f0"></rect><rect x="335.31" y="221.8" width="2.83" height="2.83" style="fill:#f0f0f0"></rect><rect x="335.31" y="226.55" width="2.83" height="2.83" style="fill:#f0f0f0"></rect><rect x="335.31" y="231.3" width="2.83" height="2.83" style="fill:#f0f0f0"></rect><rect x="335.31" y="236.05" width="2.83" height="2.83" style="fill:#f0f0f0"></rect><rect x="335.31" y="240.8" width="2.83" height="2.83" style="fill:#f0f0f0"></rect><rect x="335.31" y="245.55" width="2.83" height="2.83" style="fill:#f0f0f0"></rect><rect x="335.31" y="250.3" width="2.83" height="2.83" style="fill:#f0f0f0"></rect><rect x="335.31" y="255.05" width="2.83" height="2.83" style="fill:#f0f0f0"></rect><rect x="335.31" y="259.8" width="2.83" height="2.83" style="fill:#f0f0f0"></rect><rect x="335.31" y="264.55" width="2.83" height="2.83" style="fill:#f0f0f0"></rect><rect x="335.31" y="269.3" width="2.83" height="2.83" style="fill:#f0f0f0"></rect><rect x="335.31" y="297.8" width="2.83" height="2.83" style="fill:#f0f0f0"></rect><rect x="335.31" y="302.55" width="2.83" height="2.83" style="fill:#f0f0f0"></rect><rect x="330.81" y="198.05" width="2.83" height="2.83" style="fill:#f0f0f0"></rect><rect x="330.81" y="202.8" width="2.83" height="2.83" style="fill:#f0f0f0"></rect><rect x="330.81" y="207.55" width="2.83" height="2.83" style="fill:#f0f0f0"></rect><rect x="330.81" y="212.3" width="2.83" height="2.83" style="fill:#f0f0f0"></rect><rect x="330.81" y="217.05" width="2.83" height="2.83" style="fill:#f0f0f0"></rect><rect x="330.81" y="221.8" width="2.83" height="2.83" style="fill:#f0f0f0"></rect><rect x="330.81" y="226.55" width="2.83" height="2.83" style="fill:#f0f0f0"></rect><rect x="330.81" y="231.3" width="2.83" height="2.83" style="fill:#f0f0f0"></rect><rect x="330.81" y="236.05" width="2.83" height="2.83" style="fill:#f0f0f0"></rect><rect x="330.81" y="240.8" width="2.83" height="2.83" style="fill:#f0f0f0"></rect><rect x="330.81" y="245.55" width="2.83" height="2.83" style="fill:#f0f0f0"></rect><rect x="330.81" y="250.3" width="2.83" height="2.83" style="fill:#f0f0f0"></rect><rect x="330.81" y="255.05" width="2.83" height="2.83" style="fill:#f0f0f0"></rect><rect x="330.81" y="259.8" width="2.83" height="2.83" style="fill:#f0f0f0"></rect><rect x="330.81" y="264.55" width="2.83" height="2.83" style="fill:#f0f0f0"></rect><rect x="330.81" y="269.3" width="2.83" height="2.83" style="fill:#f0f0f0"></rect><rect x="330.81" y="278.8" width="2.83" height="2.83" style="fill:#f0f0f0"></rect><rect x="330.81" y="283.55" width="2.83" height="2.83" style="fill:#f0f0f0"></rect><rect x="330.81" y="288.3" width="2.83" height="2.83" style="fill:#f0f0f0"></rect><rect x="330.81" y="293.05" width="2.83" height="2.83" style="fill:#f0f0f0"></rect><rect x="330.81" y="302.55" width="2.83" height="2.83" style="fill:#f0f0f0"></rect><rect x="356.15" y="257.89" width="2.83" height="2.83" style="fill:#f0f0f0"></rect><rect x="356.15" y="262.64" width="2.83" height="2.83" style="fill:#f0f0f0"></rect><rect x="356.15" y="267.39" width="2.83" height="2.83" style="fill:#f0f0f0"></rect><rect x="356.15" y="272.14" width="2.83" height="2.83" style="fill:#f0f0f0"></rect><rect x="356.15" y="276.89" width="2.83" height="2.83" style="fill:#f0f0f0"></rect><rect x="356.15" y="281.64" width="2.83" height="2.83" style="fill:#f0f0f0"></rect><rect x="356.15" y="286.39" width="2.83" height="2.83" style="fill:#f0f0f0"></rect><rect x="356.15" y="295.89" width="2.83" height="2.83" style="fill:#f0f0f0"></rect><rect x="356.15" y="300.64" width="2.83" height="2.83" style="fill:#f0f0f0"></rect><rect x="356.15" y="305.39" width="2.83" height="2.83" style="fill:#f0f0f0"></rect><rect x="356.15" y="310.14" width="2.83" height="2.83" style="fill:#f0f0f0"></rect><rect x="356.15" y="314.89" width="2.83" height="2.83" style="fill:#f0f0f0"></rect><rect x="356.15" y="319.64" width="2.83" height="2.83" style="fill:#f0f0f0"></rect><rect x="356.15" y="324.39" width="2.83" height="2.83" style="fill:#f0f0f0"></rect><rect x="356.15" y="329.14" width="2.83" height="2.83" style="fill:#f0f0f0"></rect><rect x="351.65" y="257.89" width="2.83" height="2.83" style="fill:#f0f0f0"></rect><rect x="351.65" y="262.64" width="2.83" height="2.83" style="fill:#f0f0f0"></rect><rect x="351.65" y="267.39" width="2.83" height="2.83" style="fill:#f0f0f0"></rect><rect x="351.65" y="272.14" width="2.83" height="2.83" style="fill:#f0f0f0"></rect><rect x="351.65" y="276.89" width="2.83" height="2.83" style="fill:#f0f0f0"></rect><rect x="351.65" y="281.64" width="2.83" height="2.83" style="fill:#f0f0f0"></rect><rect x="351.65" y="295.89" width="2.83" height="2.83" style="fill:#f0f0f0"></rect><rect x="351.65" y="300.64" width="2.83" height="2.83" style="fill:#f0f0f0"></rect><rect x="351.65" y="305.39" width="2.83" height="2.83" style="fill:#f0f0f0"></rect><rect x="351.65" y="310.14" width="2.83" height="2.83" style="fill:#f0f0f0"></rect><rect x="351.65" y="314.89" width="2.83" height="2.83" style="fill:#f0f0f0"></rect><rect x="351.65" y="319.64" width="2.83" height="2.83" style="fill:#f0f0f0"></rect><rect x="351.65" y="324.39" width="2.83" height="2.83" style="fill:#f0f0f0"></rect><rect x="351.65" y="329.14" width="2.83" height="2.83" style="fill:#f0f0f0"></rect><rect x="347.15" y="257.89" width="2.83" height="2.83" style="fill:#f0f0f0"></rect><rect x="347.15" y="262.64" width="2.83" height="2.83" style="fill:#f0f0f0"></rect><rect x="347.15" y="267.39" width="2.83" height="2.83" style="fill:#f0f0f0"></rect><rect x="347.15" y="272.14" width="2.83" height="2.83" style="fill:#f0f0f0"></rect><rect x="347.15" y="276.89" width="2.83" height="2.83" style="fill:#f0f0f0"></rect><rect x="347.15" y="281.64" width="2.83" height="2.83" style="fill:#f0f0f0"></rect><rect x="347.15" y="291.14" width="2.83" height="2.83" style="fill:#f0f0f0"></rect><rect x="347.15" y="295.89" width="2.83" height="2.83" style="fill:#f0f0f0"></rect><rect x="347.15" y="300.64" width="2.83" height="2.83" style="fill:#f0f0f0"></rect><rect x="347.15" y="305.39" width="2.83" height="2.83" style="fill:#f0f0f0"></rect><rect x="347.15" y="310.14" width="2.83" height="2.83" style="fill:#f0f0f0"></rect><rect x="347.15" y="314.89" width="2.83" height="2.83" style="fill:#f0f0f0"></rect><rect x="347.15" y="319.64" width="2.83" height="2.83" style="fill:#f0f0f0"></rect><rect x="347.15" y="324.39" width="2.83" height="2.83" style="fill:#f0f0f0"></rect><rect x="347.15" y="329.14" width="2.83" height="2.83" style="fill:#f0f0f0"></rect><rect x="252.31" y="231.3" width="2.83" height="2.83" style="fill:#f0f0f0"></rect><rect x="252.31" y="236.05" width="2.83" height="2.83" style="fill:#f0f0f0"></rect><rect x="252.31" y="240.8" width="2.83" height="2.83" style="fill:#f0f0f0"></rect><rect x="252.31" y="245.55" width="2.83" height="2.83" style="fill:#f0f0f0"></rect><rect x="252.31" y="250.3" width="2.83" height="2.83" style="fill:#f0f0f0"></rect><rect x="252.31" y="255.05" width="2.83" height="2.83" style="fill:#f0f0f0"></rect><rect x="252.31" y="259.8" width="2.83" height="2.83" style="fill:#f0f0f0"></rect><rect x="252.31" y="264.55" width="2.83" height="2.83" style="fill:#f0f0f0"></rect><rect x="252.31" y="269.3" width="2.83" height="2.83" style="fill:#f0f0f0"></rect><rect x="252.31" y="274.05" width="2.83" height="2.83" style="fill:#f0f0f0"></rect><rect x="252.31" y="278.8" width="2.83" height="2.83" style="fill:#f0f0f0"></rect><rect x="252.31" y="283.55" width="2.83" height="2.83" style="fill:#f0f0f0"></rect><rect x="252.31" y="288.3" width="2.83" height="2.83" style="fill:#f0f0f0"></rect><rect x="252.31" y="297.8" width="2.83" height="2.83" style="fill:#f0f0f0"></rect><rect x="252.31" y="302.55" width="2.83" height="2.83" style="fill:#f0f0f0"></rect><rect x="252.31" y="307.3" width="2.83" height="2.83" style="fill:#f0f0f0"></rect><rect x="252.31" y="312.05" width="2.83" height="2.83" style="fill:#f0f0f0"></rect><rect x="252.31" y="321.55" width="2.83" height="2.83" style="fill:#f0f0f0"></rect><rect x="252.31" y="326.3" width="2.83" height="2.83" style="fill:#f0f0f0"></rect><rect x="252.31" y="331.05" width="2.83" height="2.83" style="fill:#f0f0f0"></rect><rect x="247.81" y="231.3" width="2.83" height="2.83" style="fill:#f0f0f0"></rect><rect x="247.81" y="236.05" width="2.83" height="2.83" style="fill:#f0f0f0"></rect><rect x="247.81" y="240.8" width="2.83" height="2.83" style="fill:#f0f0f0"></rect><rect x="247.81" y="245.55" width="2.83" height="2.83" style="fill:#f0f0f0"></rect><rect x="247.81" y="250.3" width="2.83" height="2.83" style="fill:#f0f0f0"></rect><rect x="247.81" y="255.05" width="2.83" height="2.83" style="fill:#f0f0f0"></rect><rect x="247.81" y="259.8" width="2.83" height="2.83" style="fill:#f0f0f0"></rect><rect x="247.81" y="264.55" width="2.83" height="2.83" style="fill:#f0f0f0"></rect><rect x="247.81" y="269.3" width="2.83" height="2.83" style="fill:#f0f0f0"></rect><rect x="247.81" y="274.05" width="2.83" height="2.83" style="fill:#f0f0f0"></rect><rect x="247.81" y="278.8" width="2.83" height="2.83" style="fill:#f0f0f0"></rect><rect x="247.81" y="283.55" width="2.83" height="2.83" style="fill:#f0f0f0"></rect><rect x="247.81" y="288.3" width="2.83" height="2.83" style="fill:#f0f0f0"></rect><rect x="247.81" y="302.55" width="2.83" height="2.83" style="fill:#f0f0f0"></rect><rect x="247.81" y="307.3" width="2.83" height="2.83" style="fill:#f0f0f0"></rect><rect x="247.81" y="316.8" width="2.83" height="2.83" style="fill:#f0f0f0"></rect><rect x="247.81" y="321.55" width="2.83" height="2.83" style="fill:#f0f0f0"></rect><rect x="247.81" y="326.3" width="2.83" height="2.83" style="fill:#f0f0f0"></rect><rect x="247.81" y="331.05" width="2.83" height="2.83" style="fill:#f0f0f0"></rect><rect x="243.31" y="231.3" width="2.83" height="2.83" style="fill:#f0f0f0"></rect><rect x="243.31" y="236.05" width="2.83" height="2.83" style="fill:#f0f0f0"></rect><rect x="243.31" y="240.8" width="2.83" height="2.83" style="fill:#f0f0f0"></rect><rect x="243.31" y="245.55" width="2.83" height="2.83" style="fill:#f0f0f0"></rect><rect x="243.31" y="250.3" width="2.83" height="2.83" style="fill:#f0f0f0"></rect><rect x="243.31" y="255.05" width="2.83" height="2.83" style="fill:#f0f0f0"></rect><rect x="243.31" y="259.8" width="2.83" height="2.83" style="fill:#f0f0f0"></rect><rect x="243.31" y="264.55" width="2.83" height="2.83" style="fill:#f0f0f0"></rect><rect x="243.31" y="269.3" width="2.83" height="2.83" style="fill:#f0f0f0"></rect><rect x="243.31" y="274.05" width="2.83" height="2.83" style="fill:#f0f0f0"></rect><rect x="243.31" y="278.8" width="2.83" height="2.83" style="fill:#f0f0f0"></rect><rect x="243.31" y="283.55" width="2.83" height="2.83" style="fill:#f0f0f0"></rect><rect x="243.31" y="288.3" width="2.83" height="2.83" style="fill:#f0f0f0"></rect><rect x="243.31" y="293.05" width="2.83" height="2.83" style="fill:#f0f0f0"></rect><rect x="243.31" y="302.55" width="2.83" height="2.83" style="fill:#f0f0f0"></rect><rect x="243.31" y="312.05" width="2.83" height="2.83" style="fill:#f0f0f0"></rect><rect x="243.31" y="316.8" width="2.83" height="2.83" style="fill:#f0f0f0"></rect><rect x="243.31" y="321.55" width="2.83" height="2.83" style="fill:#f0f0f0"></rect><rect x="243.31" y="326.3" width="2.83" height="2.83" style="fill:#f0f0f0"></rect><rect x="243.31" y="331.05" width="2.83" height="2.83" style="fill:#f0f0f0"></rect><rect x="270.65" y="258.39" width="2.83" height="2.83" style="fill:#f0f0f0"></rect><rect x="270.65" y="263.14" width="2.83" height="2.83" style="fill:#f0f0f0"></rect><rect x="270.65" y="267.89" width="2.83" height="2.83" style="fill:#f0f0f0"></rect><rect x="270.65" y="272.64" width="2.83" height="2.83" style="fill:#f0f0f0"></rect><rect x="270.65" y="277.39" width="2.83" height="2.83" style="fill:#f0f0f0"></rect><rect x="270.65" y="282.14" width="2.83" height="2.83" style="fill:#f0f0f0"></rect><rect x="270.65" y="296.39" width="2.83" height="2.83" style="fill:#f0f0f0"></rect><rect x="270.65" y="301.14" width="2.83" height="2.83" style="fill:#f0f0f0"></rect><rect x="270.65" y="305.89" width="2.83" height="2.83" style="fill:#f0f0f0"></rect><rect x="270.65" y="310.64" width="2.83" height="2.83" style="fill:#f0f0f0"></rect><rect x="270.65" y="315.39" width="2.83" height="2.83" style="fill:#f0f0f0"></rect><rect x="270.65" y="320.14" width="2.83" height="2.83" style="fill:#f0f0f0"></rect><rect x="270.65" y="324.89" width="2.83" height="2.83" style="fill:#f0f0f0"></rect><rect x="266.15" y="258.39" width="2.83" height="2.83" style="fill:#f0f0f0"></rect><rect x="266.15" y="263.14" width="2.83" height="2.83" style="fill:#f0f0f0"></rect><rect x="266.15" y="267.89" width="2.83" height="2.83" style="fill:#f0f0f0"></rect><rect x="266.15" y="272.64" width="2.83" height="2.83" style="fill:#f0f0f0"></rect><rect x="266.15" y="277.39" width="2.83" height="2.83" style="fill:#f0f0f0"></rect><rect x="266.15" y="282.14" width="2.83" height="2.83" style="fill:#f0f0f0"></rect><rect x="266.15" y="296.39" width="2.83" height="2.83" style="fill:#f0f0f0"></rect><rect x="266.15" y="301.14" width="2.83" height="2.83" style="fill:#f0f0f0"></rect><rect x="266.15" y="305.89" width="2.83" height="2.83" style="fill:#f0f0f0"></rect><rect x="266.15" y="310.64" width="2.83" height="2.83" style="fill:#f0f0f0"></rect><rect x="266.15" y="315.39" width="2.83" height="2.83" style="fill:#f0f0f0"></rect><rect x="266.15" y="320.14" width="2.83" height="2.83" style="fill:#f0f0f0"></rect><rect x="266.15" y="329.64" width="2.83" height="2.83" style="fill:#f0f0f0"></rect><rect x="116.65" y="237.47" width="2.83" height="2.83" style="fill:#f0f0f0"></rect><rect x="116.65" y="242.22" width="2.83" height="2.83" style="fill:#f0f0f0"></rect><rect x="116.65" y="246.97" width="2.83" height="2.83" style="fill:#f0f0f0"></rect><rect x="116.65" y="251.72" width="2.83" height="2.83" style="fill:#f0f0f0"></rect><rect x="116.65" y="256.47" width="2.83" height="2.83" style="fill:#f0f0f0"></rect><rect x="116.65" y="261.22" width="2.83" height="2.83" style="fill:#f0f0f0"></rect><rect x="116.65" y="265.97" width="2.83" height="2.83" style="fill:#f0f0f0"></rect><rect x="116.65" y="270.72" width="2.83" height="2.83" style="fill:#f0f0f0"></rect><rect x="116.65" y="275.47" width="2.83" height="2.83" style="fill:#f0f0f0"></rect><rect x="116.65" y="280.22" width="2.83" height="2.83" style="fill:#f0f0f0"></rect><rect x="116.65" y="284.97" width="2.83" height="2.83" style="fill:#f0f0f0"></rect><rect x="116.65" y="294.47" width="2.83" height="2.83" style="fill:#f0f0f0"></rect><rect x="116.65" y="299.22" width="2.83" height="2.83" style="fill:#f0f0f0"></rect><rect x="116.65" y="303.97" width="2.83" height="2.83" style="fill:#f0f0f0"></rect><rect x="116.65" y="308.72" width="2.83" height="2.83" style="fill:#f0f0f0"></rect><rect x="116.65" y="313.47" width="2.83" height="2.83" style="fill:#f0f0f0"></rect><rect x="116.65" y="318.22" width="2.83" height="2.83" style="fill:#f0f0f0"></rect><rect x="116.65" y="322.97" width="2.83" height="2.83" style="fill:#f0f0f0"></rect><rect x="116.65" y="327.72" width="2.83" height="2.83" style="fill:#f0f0f0"></rect><rect x="112.15" y="237.47" width="2.83" height="2.83" style="fill:#f0f0f0"></rect><rect x="112.15" y="242.22" width="2.83" height="2.83" style="fill:#f0f0f0"></rect><rect x="112.15" y="246.97" width="2.83" height="2.83" style="fill:#f0f0f0"></rect><rect x="112.15" y="251.72" width="2.83" height="2.83" style="fill:#f0f0f0"></rect><rect x="112.15" y="256.47" width="2.83" height="2.83" style="fill:#f0f0f0"></rect><rect x="112.15" y="261.22" width="2.83" height="2.83" style="fill:#f0f0f0"></rect><rect x="112.15" y="265.97" width="2.83" height="2.83" style="fill:#f0f0f0"></rect><rect x="112.15" y="270.72" width="2.83" height="2.83" style="fill:#f0f0f0"></rect><rect x="112.15" y="275.47" width="2.83" height="2.83" style="fill:#f0f0f0"></rect><rect x="112.15" y="280.22" width="2.83" height="2.83" style="fill:#f0f0f0"></rect><rect x="112.15" y="284.97" width="2.83" height="2.83" style="fill:#f0f0f0"></rect><rect x="112.15" y="289.72" width="2.83" height="2.83" style="fill:#f0f0f0"></rect><rect x="112.15" y="294.47" width="2.83" height="2.83" style="fill:#f0f0f0"></rect><rect x="112.15" y="299.22" width="2.83" height="2.83" style="fill:#f0f0f0"></rect><rect x="112.15" y="303.97" width="2.83" height="2.83" style="fill:#f0f0f0"></rect><rect x="112.15" y="308.72" width="2.83" height="2.83" style="fill:#f0f0f0"></rect><rect x="112.15" y="313.47" width="2.83" height="2.83" style="fill:#f0f0f0"></rect><rect x="112.15" y="318.22" width="2.83" height="2.83" style="fill:#f0f0f0"></rect><rect x="112.15" y="322.97" width="2.83" height="2.83" style="fill:#f0f0f0"></rect><rect x="112.15" y="327.72" width="2.83" height="2.83" style="fill:#f0f0f0"></rect><rect x="138.81" y="255.97" width="2.83" height="2.83" style="fill:#f0f0f0"></rect><rect x="138.81" y="260.72" width="2.83" height="2.83" style="fill:#f0f0f0"></rect><rect x="138.81" y="265.47" width="2.83" height="2.83" style="fill:#f0f0f0"></rect><rect x="138.81" y="270.22" width="2.83" height="2.83" style="fill:#f0f0f0"></rect><rect x="138.81" y="274.97" width="2.83" height="2.83" style="fill:#f0f0f0"></rect><rect x="138.81" y="279.72" width="2.83" height="2.83" style="fill:#f0f0f0"></rect><rect x="138.81" y="284.47" width="2.83" height="2.83" style="fill:#f0f0f0"></rect><rect x="138.81" y="289.22" width="2.83" height="2.83" style="fill:#f0f0f0"></rect><rect x="138.81" y="293.97" width="2.83" height="2.83" style="fill:#f0f0f0"></rect><rect x="138.81" y="298.72" width="2.83" height="2.83" style="fill:#f0f0f0"></rect><rect x="134.31" y="255.97" width="2.83" height="2.83" style="fill:#f0f0f0"></rect><rect x="134.31" y="260.72" width="2.83" height="2.83" style="fill:#f0f0f0"></rect><rect x="134.31" y="265.47" width="2.83" height="2.83" style="fill:#f0f0f0"></rect><rect x="134.31" y="270.22" width="2.83" height="2.83" style="fill:#f0f0f0"></rect><rect x="134.31" y="274.97" width="2.83" height="2.83" style="fill:#f0f0f0"></rect><rect x="134.31" y="279.72" width="2.83" height="2.83" style="fill:#f0f0f0"></rect><rect x="134.31" y="284.47" width="2.83" height="2.83" style="fill:#f0f0f0"></rect><rect x="134.31" y="289.22" width="2.83" height="2.83" style="fill:#f0f0f0"></rect><rect x="134.31" y="293.97" width="2.83" height="2.83" style="fill:#f0f0f0"></rect><rect x="337.08" y="75.71" width="4.76" height="266.57" style="fill:#e0e0e0"></rect><rect x="247.62" y="75.71" width="4.76" height="266.57" style="fill:#e0e0e0"></rect><rect x="158.16" y="75.71" width="4.76" height="266.57" style="fill:#e0e0e0"></rect></g><g id="freepik--Shadow--inject-9"><ellipse id="freepik--path--inject-9" cx="250" cy="416.24" rx="193.89" ry="11.32" style="fill:#f5f5f5"></ellipse></g><g id="freepik--Chart3--inject-9"><rect x="135.41" y="127.83" width="176" height="140.84" rx="2.54" style="fill:#263238"></rect><g style="opacity:0.2"><rect x="158" y="250" width="138" height="1" style="fill:#fff"></rect><rect x="158" y="245" width="138" height="1" style="fill:#fff"></rect><rect x="158" y="240" width="138" height="1" style="fill:#fff"></rect><rect x="158" y="235" width="138" height="1" style="fill:#fff"></rect><rect x="158" y="230" width="138" height="1" style="fill:#fff"></rect><rect x="158" y="225" width="138" height="1" style="fill:#fff"></rect><rect x="158" y="220" width="138" height="1" style="fill:#fff"></rect><rect x="158" y="215" width="138" height="1" style="fill:#fff"></rect><rect x="158" y="210" width="138" height="1" style="fill:#fff"></rect><rect x="158" y="205" width="138" height="1" style="fill:#fff"></rect><rect x="158" y="200" width="138" height="1" style="fill:#fff"></rect><rect x="158" y="195" width="138" height="1" style="fill:#fff"></rect><rect x="158" y="190" width="138" height="1" style="fill:#fff"></rect><rect x="158" y="185" width="138" height="1" style="fill:#fff"></rect><rect x="158" y="180" width="138" height="1" style="fill:#fff"></rect><rect x="158" y="175" width="138" height="1" style="fill:#fff"></rect><rect x="158" y="170" width="138" height="1" style="fill:#fff"></rect><rect x="158" y="165" width="138" height="1" style="fill:#fff"></rect><rect x="158" y="160" width="138" height="1" style="fill:#fff"></rect><rect x="158" y="155" width="138" height="1" style="fill:#fff"></rect></g><rect x="162.67" y="241.02" width="8.33" height="9.98" style="fill:#407BFF"></rect><rect x="177.67" y="211" width="8.33" height="40" style="fill:#407BFF"></rect><rect x="192.67" y="190.99" width="8.33" height="60.01" style="fill:#407BFF"></rect><rect x="207.67" y="196.99" width="8.33" height="54.01" style="fill:#407BFF"></rect><rect x="222.67" y="211" width="8.33" height="40" style="fill:#407BFF"></rect><rect x="237.67" y="190.99" width="8.33" height="60.01" style="fill:#407BFF"></rect><rect x="252.67" y="170.97" width="8.33" height="80.03" style="fill:#407BFF"></rect><rect x="267.67" y="165.97" width="8.33" height="85.03" style="fill:#407BFF"></rect><rect x="282.67" y="211" width="8.33" height="40" style="fill:#407BFF"></rect><g style="opacity:0.6000000000000001;isolation:isolate"><rect x="162.67" y="244.66" width="8.33" height="6.34" style="fill:#fff"></rect><rect x="177.67" y="225.59" width="8.33" height="25.41" style="fill:#fff"></rect><rect x="192.67" y="212.88" width="8.33" height="38.12" style="fill:#fff"></rect><rect x="207.67" y="216.69" width="8.33" height="34.31" style="fill:#fff"></rect><rect x="222.67" y="225.59" width="8.33" height="25.41" style="fill:#fff"></rect><rect x="237.67" y="212.88" width="8.33" height="38.12" style="fill:#fff"></rect><rect x="252.67" y="200.17" width="8.33" height="50.83" style="fill:#fff"></rect><rect x="267.67" y="196.99" width="8.33" height="54.01" style="fill:#fff"></rect><rect x="282.67" y="225.59" width="8.33" height="25.41" style="fill:#fff"></rect></g><g style="opacity:0.2"><path d="M152.07,248.44h2.44a1.28,1.28,0,0,1,1.28,1.28h0a1.28,1.28,0,0,1-1.28,1.28h-2.44a1.28,1.28,0,0,1-1.28-1.28h0A1.28,1.28,0,0,1,152.07,248.44Z" style="fill:#fff"></path><path d="M152.07,243.44h2.44a1.28,1.28,0,0,1,1.28,1.28h0a1.28,1.28,0,0,1-1.28,1.28h-2.44a1.28,1.28,0,0,1-1.28-1.28h0A1.28,1.28,0,0,1,152.07,243.44Z" style="fill:#fff"></path><path d="M152.07,238.44h2.44a1.28,1.28,0,0,1,1.28,1.28h0a1.28,1.28,0,0,1-1.28,1.28h-2.44a1.28,1.28,0,0,1-1.28-1.28h0A1.28,1.28,0,0,1,152.07,238.44Z" style="fill:#fff"></path><path d="M152.07,233.44h2.44a1.28,1.28,0,0,1,1.28,1.28h0a1.28,1.28,0,0,1-1.28,1.28h-2.44a1.28,1.28,0,0,1-1.28-1.28h0A1.28,1.28,0,0,1,152.07,233.44Z" style="fill:#fff"></path><path d="M152.07,228.44h2.44a1.28,1.28,0,0,1,1.28,1.28h0a1.28,1.28,0,0,1-1.28,1.28h-2.44a1.28,1.28,0,0,1-1.28-1.28h0A1.28,1.28,0,0,1,152.07,228.44Z" style="fill:#fff"></path><path d="M152.07,223.44h2.44a1.28,1.28,0,0,1,1.28,1.28h0a1.28,1.28,0,0,1-1.28,1.28h-2.44a1.28,1.28,0,0,1-1.28-1.28h0A1.28,1.28,0,0,1,152.07,223.44Z" style="fill:#fff"></path><path d="M152.07,218.44h2.44a1.28,1.28,0,0,1,1.28,1.28h0a1.28,1.28,0,0,1-1.28,1.28h-2.44a1.28,1.28,0,0,1-1.28-1.28h0A1.28,1.28,0,0,1,152.07,218.44Z" style="fill:#fff"></path><path d="M152.07,213.44h2.44a1.28,1.28,0,0,1,1.28,1.28h0a1.28,1.28,0,0,1-1.28,1.28h-2.44a1.28,1.28,0,0,1-1.28-1.28h0A1.28,1.28,0,0,1,152.07,213.44Z" style="fill:#fff"></path><path d="M152.07,208.44h2.44a1.28,1.28,0,0,1,1.28,1.28h0a1.28,1.28,0,0,1-1.28,1.28h-2.44a1.28,1.28,0,0,1-1.28-1.28h0A1.28,1.28,0,0,1,152.07,208.44Z" style="fill:#fff"></path><path d="M152.07,203.44h2.44a1.28,1.28,0,0,1,1.28,1.28h0a1.28,1.28,0,0,1-1.28,1.28h-2.44a1.28,1.28,0,0,1-1.28-1.28h0A1.28,1.28,0,0,1,152.07,203.44Z" style="fill:#fff"></path><path d="M152.07,198.44h2.44a1.28,1.28,0,0,1,1.28,1.28h0a1.28,1.28,0,0,1-1.28,1.28h-2.44a1.28,1.28,0,0,1-1.28-1.28h0A1.28,1.28,0,0,1,152.07,198.44Z" style="fill:#fff"></path><path d="M152.07,193.44h2.44a1.28,1.28,0,0,1,1.28,1.28h0a1.28,1.28,0,0,1-1.28,1.28h-2.44a1.28,1.28,0,0,1-1.28-1.28h0A1.28,1.28,0,0,1,152.07,193.44Z" style="fill:#fff"></path><path d="M152.07,188.44h2.44a1.28,1.28,0,0,1,1.28,1.28h0a1.28,1.28,0,0,1-1.28,1.28h-2.44a1.28,1.28,0,0,1-1.28-1.28h0A1.28,1.28,0,0,1,152.07,188.44Z" style="fill:#fff"></path><path d="M152.07,183.44h2.44a1.28,1.28,0,0,1,1.28,1.28h0a1.28,1.28,0,0,1-1.28,1.28h-2.44a1.28,1.28,0,0,1-1.28-1.28h0A1.28,1.28,0,0,1,152.07,183.44Z" style="fill:#fff"></path><path d="M152.07,178.44h2.44a1.28,1.28,0,0,1,1.28,1.28h0a1.28,1.28,0,0,1-1.28,1.28h-2.44a1.28,1.28,0,0,1-1.28-1.28h0A1.28,1.28,0,0,1,152.07,178.44Z" style="fill:#fff"></path><path d="M152.07,173.44h2.44a1.28,1.28,0,0,1,1.28,1.28h0a1.28,1.28,0,0,1-1.28,1.28h-2.44a1.28,1.28,0,0,1-1.28-1.28h0A1.28,1.28,0,0,1,152.07,173.44Z" style="fill:#fff"></path><path d="M152.07,168.44h2.44a1.28,1.28,0,0,1,1.28,1.28h0a1.28,1.28,0,0,1-1.28,1.28h-2.44a1.28,1.28,0,0,1-1.28-1.28h0A1.28,1.28,0,0,1,152.07,168.44Z" style="fill:#fff"></path><path d="M152.07,163.44h2.44a1.28,1.28,0,0,1,1.28,1.28h0a1.28,1.28,0,0,1-1.28,1.28h-2.44a1.28,1.28,0,0,1-1.28-1.28h0A1.28,1.28,0,0,1,152.07,163.44Z" style="fill:#fff"></path><path d="M152.07,158.44h2.44a1.28,1.28,0,0,1,1.28,1.28h0a1.28,1.28,0,0,1-1.28,1.28h-2.44a1.28,1.28,0,0,1-1.28-1.28h0A1.28,1.28,0,0,1,152.07,158.44Z" style="fill:#fff"></path><path d="M152.07,153.44h2.44a1.28,1.28,0,0,1,1.28,1.28h0a1.28,1.28,0,0,1-1.28,1.28h-2.44a1.28,1.28,0,0,1-1.28-1.28h0A1.28,1.28,0,0,1,152.07,153.44Z" style="fill:#fff"></path></g><path d="M165.62,253.5h2.44a1.28,1.28,0,0,1,1.28,1.28h0a1.28,1.28,0,0,1-1.28,1.28h-2.44a1.28,1.28,0,0,1-1.28-1.28h0A1.28,1.28,0,0,1,165.62,253.5Z" style="fill:#fff"></path><path d="M180.62,253.5h2.44a1.28,1.28,0,0,1,1.28,1.28h0a1.28,1.28,0,0,1-1.28,1.28h-2.44a1.28,1.28,0,0,1-1.28-1.28h0A1.28,1.28,0,0,1,180.62,253.5Z" style="fill:#fff"></path><path d="M195.62,253.5h2.44a1.28,1.28,0,0,1,1.28,1.28h0a1.28,1.28,0,0,1-1.28,1.28h-2.44a1.28,1.28,0,0,1-1.28-1.28h0A1.28,1.28,0,0,1,195.62,253.5Z" style="fill:#fff"></path><path d="M210.62,253.5h2.44a1.28,1.28,0,0,1,1.28,1.28h0a1.28,1.28,0,0,1-1.28,1.28h-2.44a1.28,1.28,0,0,1-1.28-1.28h0A1.28,1.28,0,0,1,210.62,253.5Z" style="fill:#fff"></path><path d="M225.62,253.5h2.44a1.28,1.28,0,0,1,1.28,1.28h0a1.28,1.28,0,0,1-1.28,1.28h-2.44a1.28,1.28,0,0,1-1.28-1.28h0A1.28,1.28,0,0,1,225.62,253.5Z" style="fill:#fff"></path><path d="M240.62,253.5h2.44a1.28,1.28,0,0,1,1.28,1.28h0a1.28,1.28,0,0,1-1.28,1.28h-2.44a1.28,1.28,0,0,1-1.28-1.28h0A1.28,1.28,0,0,1,240.62,253.5Z" style="fill:#fff"></path><path d="M255.62,253.5h2.44a1.28,1.28,0,0,1,1.28,1.28h0a1.28,1.28,0,0,1-1.28,1.28h-2.44a1.28,1.28,0,0,1-1.28-1.28h0A1.28,1.28,0,0,1,255.62,253.5Z" style="fill:#fff"></path><path d="M270.62,253.5h2.44a1.28,1.28,0,0,1,1.28,1.28h0a1.28,1.28,0,0,1-1.28,1.28h-2.44a1.28,1.28,0,0,1-1.28-1.28h0A1.28,1.28,0,0,1,270.62,253.5Z" style="fill:#fff"></path><path d="M285.62,253.5h2.44a1.28,1.28,0,0,1,1.28,1.28h0a1.28,1.28,0,0,1-1.28,1.28h-2.44a1.28,1.28,0,0,1-1.28-1.28h0A1.28,1.28,0,0,1,285.62,253.5Z" style="fill:#fff"></path><path d="M263,142.06H183.79a2.14,2.14,0,0,1-2.14-2.15h0a2.14,2.14,0,0,1,2.14-2.14H263a2.14,2.14,0,0,1,2.15,2.14h0A2.15,2.15,0,0,1,263,142.06Z" style="fill:#fff;opacity:0.2"></path><g style="opacity:0.2;isolation:isolate"><path d="M259.58,153H311V130.37a2.08,2.08,0,0,0-2.13-2.37H257v22C257,151.42,258.18,153,259.58,153Z"></path><path d="M311,266.12V251H249.9a2.94,2.94,0,0,0-2.9,2.61V269h61.87C310.27,269,311,267.53,311,266.12Z"></path></g><rect x="162.67" y="245.88" width="8.33" height="5.12" style="fill:#fff"></rect><rect x="177.67" y="230.49" width="8.33" height="20.5" style="fill:#fff"></rect><rect x="192.67" y="220.24" width="8.33" height="30.76" style="fill:#fff"></rect><rect x="207.67" y="223.31" width="8.33" height="27.68" style="fill:#fff"></rect><rect x="222.67" y="230.49" width="8.33" height="20.5" style="fill:#fff"></rect><rect x="237.67" y="220.24" width="8.33" height="30.76" style="fill:#fff"></rect><rect x="252.67" y="209.98" width="8.33" height="41.02" style="fill:#fff"></rect><rect x="267.67" y="207.41" width="8.33" height="43.59" style="fill:#fff"></rect><rect x="282.67" y="230.49" width="8.33" height="20.5" style="fill:#fff"></rect></g><g id="freepik--Chart2--inject-9"><rect x="258.87" y="261.39" width="94.95" height="90.81" rx="2.54" style="fill:#263238"></rect><circle cx="298.1" cy="315.65" r="26.09" style="fill:#407BFF"></circle><path d="M298.1,315.65l20.82-15.72A26.09,26.09,0,1,1,289.5,291Z" style="fill:#fff;opacity:0.2"></path><path d="M298.1,315.65l20.21-16.49A26.08,26.08,0,1,1,277,300.31Z" style="fill:#fff"></path><rect x="332.32" y="294.47" width="8.35" height="8.35" rx="1.35" style="fill:#407BFF"></rect><rect x="332.32" y="310.66" width="8.35" height="8.35" rx="1.35" style="fill:#407BFF"></rect><rect x="332.32" y="326.85" width="8.35" height="8.35" rx="1.35" style="fill:#fff"></rect><rect x="332.32" y="310.66" width="8.35" height="8.35" rx="1.35" style="fill:#fff;opacity:0.2"></rect><path d="M337.45,276.31H275.23a2.14,2.14,0,0,1-2.14-2.15h0a2.14,2.14,0,0,1,2.14-2.14h62.22a2.14,2.14,0,0,1,2.14,2.14h0A2.14,2.14,0,0,1,337.45,276.31Z" style="fill:#fff;opacity:0.2"></path></g><g id="freepik--Chart1--inject-9"><rect x="272.38" y="86.32" width="67.93" height="54.78" rx="2.54" style="fill:#263238"></rect><g style="opacity:0.2"><rect x="279" y="134" width="55" height="1" style="fill:#fff"></rect><rect x="279" y="129" width="55" height="1" style="fill:#fff"></rect><rect x="279" y="124" width="55" height="1" style="fill:#fff"></rect><rect x="279" y="119" width="55" height="1" style="fill:#fff"></rect><rect x="279" y="114" width="55" height="1" style="fill:#fff"></rect><rect x="279" y="109" width="55" height="1" style="fill:#fff"></rect><rect x="279" y="104" width="55" height="1" style="fill:#fff"></rect></g><path d="M278.86,135V125l3.95-3.94a2.9,2.9,0,0,1,4.11,0h0a2.9,2.9,0,0,0,4,.1h0a7.56,7.56,0,0,1,9.36-.58l1.21.84a9.41,9.41,0,0,0,12.27-1.34l2.72-2.94a4.83,4.83,0,0,1,6.57-.49h0a4.85,4.85,0,0,0,6.2-.13l4.62-4V135Z" style="fill:#407BFF"></path><path d="M278.86,135V125l3.95-3.94a2.9,2.9,0,0,1,4.11,0h0a2.9,2.9,0,0,0,4,.1h0a7.56,7.56,0,0,1,9.36-.58l1.21.84a9.41,9.41,0,0,0,12.27-1.34l2.72-2.94a4.83,4.83,0,0,1,6.57-.49h0a4.85,4.85,0,0,0,6.2-.13l4.62-4V135Z" style="fill:#fff;opacity:0.2"></path><path d="M278.86,135l10-9.47a3.09,3.09,0,0,1,4.49.2h0a3.1,3.1,0,0,0,4.46.24l4.7-4.41a5.85,5.85,0,0,1,7.56-.38h0a5.86,5.86,0,0,0,7.67-.49l.23-.23a3.1,3.1,0,0,1,4.32,0h0a3.68,3.68,0,0,0,4.85.22l6.71-5.2V135Z" style="fill:#407BFF"></path><path d="M321.94,97.19h-31.2A2.15,2.15,0,0,1,288.6,95h0a2.14,2.14,0,0,1,2.14-2.14h31.2A2.14,2.14,0,0,1,324.09,95h0A2.15,2.15,0,0,1,321.94,97.19Z" style="fill:#fff;opacity:0.2"></path></g><g id="freepik--Character2--inject-9"><g id="freepik--group--inject-9"><path d="M304.67,177.83,294.83,171s-1.5-5.39-2.16-5.95-9.67-3.88-10.84-3.38-1,10.79,0,11.06S291,175.5,291,175.5l10.5,8.5Z" style="fill:#e4897b"></path><path d="M365.75,180s-.44.41-1.17,1.14c-1.72,1.68-5.58,5.07-9.58,8.7h0c-8,6.56-17.87,13.89-24,13.33-11-1-35-20.49-35-20.49l4.52-8.3S318,186,328.5,188.44s27.5-28.94,35.66-31.13Z" style="fill:#407BFF"></path><path d="M365.75,180s-.44.41-1.17,1.14c-1.72,1.68-5.58,5.07-9.58,8.7h0c-8,6.56-17.87,13.89-24,13.33-11-1-35-20.49-35-20.49l4.52-8.3S318,186,328.5,188.44s27.5-28.94,35.66-31.13Z" style="fill:#fff;opacity:0.6000000000000001;isolation:isolate"></path><polygon points="302.33 174.04 296.83 185 294.83 182 299.5 172.73 302.33 174.04" style="fill:#407BFF"></polygon><polygon points="302.33 174.04 296.83 185 294.83 182 299.5 172.73 302.33 174.04" style="fill:#fff;opacity:0.7000000000000001;isolation:isolate"></polygon><path d="M364.61,181.14c-1.72,1.68-5.27,5.07-9.55,8.7,1.94-8.86,8.11-16.17,8.11-16.17Z" style="opacity:0.2;isolation:isolate"></path><polygon points="365.48 408.03 357.37 408.88 355.85 391.39 363.96 390.53 365.48 408.03" style="fill:#e4897b"></polygon><polygon points="405.96 407.44 398.1 407.44 397.45 389.23 405.32 389.23 405.96 407.44" style="fill:#e4897b"></polygon><path d="M397,406.53h9.55a.68.68,0,0,1,.67.54l1.55,7a1.18,1.18,0,0,1-1.15,1.4c-3.09-.05-5.34-.24-9.22-.24-2.39,0-9.6.25-12.9.25s-3.73-3.26-2.38-3.56c6.06-1.32,10.62-3.15,12.56-4.89A1.89,1.89,0,0,1,397,406.53Z" style="fill:#2e353a"></path><path d="M394.41,407.91a2.38,2.38,0,0,1-1.51-.4,1.12,1.12,0,0,1-.39-1,.55.55,0,0,1,.32-.52c.87-.45,3.41,1.11,3.69,1.29a.16.16,0,0,1,.09.18.19.19,0,0,1-.14.16A9.47,9.47,0,0,1,394.41,407.91Zm-1.17-1.63a.4.4,0,0,0-.24.05c-.05,0-.11.07-.12.22a.77.77,0,0,0,.25.67,3.82,3.82,0,0,0,2.8.14A7.5,7.5,0,0,0,393.24,406.28Z" style="fill:#407BFF"></path><path d="M396.42,407.63h-.09c-.81-.44-2.38-2.17-2.22-3a.61.61,0,0,1,.6-.49,1,1,0,0,1,.79.24c.91.74,1.1,3,1.11,3.11a.2.2,0,0,1-.09.17A.17.17,0,0,1,396.42,407.63Zm-1.58-3.19h-.09c-.24,0-.26.14-.27.19-.1.51.9,1.82,1.71,2.43a4.38,4.38,0,0,0-.93-2.46A.61.61,0,0,0,394.84,404.44Z" style="fill:#407BFF"></path><path d="M356.51,406.28h9.55a.68.68,0,0,1,.67.54l1.55,7a1.18,1.18,0,0,1-1.15,1.4c-3.09-.05-5.34-.24-9.22-.24-2.39,0-9.6.25-12.9.25s-3.73-3.26-2.38-3.56c6.06-1.32,10.62-3.15,12.56-4.89A1.89,1.89,0,0,1,356.51,406.28Z" style="fill:#2e353a"></path><path d="M353.91,407.66a2.38,2.38,0,0,1-1.51-.4,1.12,1.12,0,0,1-.39-1,.55.55,0,0,1,.32-.52c.87-.45,3.41,1.11,3.69,1.29a.16.16,0,0,1,.09.18.19.19,0,0,1-.14.16A9.47,9.47,0,0,1,353.91,407.66ZM352.74,406a.4.4,0,0,0-.24.05c-.05,0-.11.07-.12.22a.77.77,0,0,0,.25.67,3.82,3.82,0,0,0,2.8.14A7.5,7.5,0,0,0,352.74,406Z" style="fill:#407BFF"></path><path d="M355.92,407.38h-.09c-.81-.44-2.38-2.17-2.22-3a.61.61,0,0,1,.6-.49,1,1,0,0,1,.79.24c.91.74,1.1,3,1.11,3.11a.2.2,0,0,1-.09.17A.17.17,0,0,1,355.92,407.38Zm-1.58-3.19h-.09c-.24,0-.26.14-.27.19-.1.51.9,1.82,1.71,2.43a4.38,4.38,0,0,0-.93-2.46A.61.61,0,0,0,354.34,404.19Z" style="fill:#407BFF"></path><polygon points="363.96 390.53 355.85 391.39 356.64 400.41 364.75 399.56 363.96 390.53" style="opacity:0.2;isolation:isolate"></polygon><polygon points="405.32 389.24 397.45 389.24 397.79 398.63 405.66 398.63 405.32 389.24" style="opacity:0.2;isolation:isolate"></polygon><path d="M402.07,229.5H360.35c-4,21.66-16.38,98.32-7.47,166.63L367,394.38s-1.31-90.68,11.16-124.2c1.44,17.94,3.14,37,4.62,47.18,3.63,25,11.4,79.64,11.4,79.64h14.38s-2.94-52.3-4.3-76.87C402.77,293.46,402.13,235,402.07,229.5Z" style="fill:#407BFF"></path><path d="M378.16,270.18a111.8,111.8,0,0,0-4.66,18.05c-1.17-16,3.5-32.9,3.5-32.9Z" style="opacity:0.2;isolation:isolate"></path><polygon points="351.26 399.42 368.74 396.82 368.21 391.98 350.02 394.36 351.26 399.42" style="fill:#407BFF"></polygon><polygon points="351.26 399.42 368.74 396.82 368.21 391.98 350.02 394.36 351.26 399.42" style="fill:#fff;opacity:0.6000000000000001;isolation:isolate"></polygon><polygon points="392.45 397.12 409.41 397.12 409.41 392.05 391.81 391.72 392.45 397.12" style="fill:#407BFF"></polygon><polygon points="392.45 397.12 409.41 397.12 409.41 392.05 391.81 391.72 392.45 397.12" style="fill:#fff;opacity:0.6000000000000001;isolation:isolate"></polygon><polygon points="360 230 402 230 402 235 359.46 234.48 360 230" style="fill:#263238"></polygon><rect x="387" y="227.75" width="1.5" height="8.88" style="fill:#407BFF"></rect><rect x="365.75" y="227.75" width="1.5" height="8.88" style="fill:#407BFF"></rect><rect x="371.38" y="229.13" width="7.77" height="5.6" style="fill:#fff"></rect><path d="M364.16,157.31s26.54-1.25,46.31,3.74c0,0-8.73,43.95-8.4,68.95H360S357.27,183.11,364.16,157.31Z" style="fill:#407BFF"></path><path d="M410.47,161.05s-1.74,8.76-3.64,20.68c-.7,4.43-1.43,9.3-2.1,14.32-1.55,11.72-2.79,24.26-2.66,33.95H360s-2.73-46.89,4.16-72.69C364.16,157.31,390.7,156.06,410.47,161.05Z" style="fill:#fff;opacity:0.6000000000000001;isolation:isolate"></path><path d="M378,160.68l1.11,5.49s-6.39,26.66-7.76,40.5L373.7,209l3.67-2.33s.33-28.17,3.56-40l5.8-4.75-4.56-1.48Z" style="fill:#407BFF"></path><path d="M372.31,121.5s-1.64,10.83,4.11,15,5.75-16,5.75-16Z" style="fill:#2e353a"></path><path d="M395.38,158.25c-3.83,3.48-13.21,2.19-13.21,2.19s-5.86-1.6-4.63-3.43c3.45-.57,5.12-2.18,5.81-4.24a10,10,0,0,0,.35-3.94,20.71,20.71,0,0,0-.29-2.2L395,138C393.49,143.71,391.63,154.14,395.38,158.25Z" style="fill:#e4897b"></path><path d="M392.33,143.5c-.46,7-6.18,8.88-9,9.27a10,10,0,0,0,.35-3.94Z" style="opacity:0.2;isolation:isolate"></path><path d="M393.11,145.11a9.83,9.83,0,0,1-11.29,3.81,11,11,0,0,1-6.25-5.09,11.2,11.2,0,0,1-.52-1c-2.83-6.62-3.73-18.2,3.27-22.54a10.66,10.66,0,0,1,16.28,8C395.46,136,396.33,140.53,393.11,145.11Z" style="fill:#e4897b"></path><path d="M383.32,132.42c.15.61-.14,1.18-.55,1.25s-.83-.38-.94-1,.15-1.18.55-1.25S383.2,131.78,383.32,132.42Z" style="fill:#2e353a"></path><path d="M376.25,133.62c.15.61-.14,1.19-.55,1.26s-.82-.39-.93-1,.14-1.19.55-1.26S376.15,133,376.25,133.62Z" style="fill:#2e353a"></path><path d="M378.55,133.55a22.9,22.9,0,0,1-2.07,5.85,3.65,3.65,0,0,0,3.1,0Z" style="fill:#de5753"></path><path d="M385.12,129.75a.38.38,0,0,1-.38-.08,3,3,0,0,0-2.56-.83.37.37,0,0,1-.18-.72h0a3.69,3.69,0,0,1,3.24,1,.36.36,0,0,1,0,.52h0A.44.44,0,0,1,385.12,129.75Z" style="fill:#2e353a"></path><path d="M381.14,142.51h0a5.67,5.67,0,0,0,4.63-2.52.19.19,0,0,0-.07-.27.19.19,0,0,0-.26.06h0a5.45,5.45,0,0,1-4.31,2.32.2.2,0,0,0-.19.19v0a.19.19,0,0,0,.19.19Z" style="fill:#2e353a"></path><path d="M372.8,131.7a.39.39,0,0,1-.21.06.37.37,0,0,1-.26-.46h0a3.69,3.69,0,0,1,2.29-2.51.36.36,0,0,1,.46.25h0a.37.37,0,0,1-.25.46h0a3,3,0,0,0-1.78,2A.35.35,0,0,1,372.8,131.7Z" style="fill:#2e353a"></path><path d="M387.33,119.67v3.45a2.57,2.57,0,0,1,1.67,3c-.75,3,1.42,7.24,3.83,8.75,0,0-.08-1.25,1-1.09s1.59,6.67-.08,10c0,0,2.75-3.16,3.67-10.16.84-6.48.41-11.73-1.18-14Z" style="fill:#2e353a"></path><path d="M396.24,120.67s2.59-5.84-7.07-7.17-19.84,2.5-19.84,2.5-.5,9.26,7.69,9.17C385,125.08,396.24,120.67,396.24,120.67Z" style="fill:#2e353a"></path><path d="M399,134a7.45,7.45,0,0,1-3.56,4.41c-2.29,1.23-4-.69-3.84-3.14.16-2.19,1.51-5.53,4.05-5.72S399.68,131.68,399,134Z" style="fill:#e4897b"></path><path d="M393.67,153.83l-11.09,5-.65-4-4.07,1.43a3.33,3.33,0,0,0-2.22,3.51l.45,4.4,5.63-3.08,2.8,4,13.32-6.41Z" style="fill:#407BFF"></path><path d="M393.67,153.83l-11.09,5-.65-4-4.07,1.43a3.33,3.33,0,0,0-2.22,3.51l.45,4.4,5.63-3.08,2.8,4,13.32-6.41Z" style="fill:#fff;opacity:0.7000000000000001;isolation:isolate"></path><path d="M406.83,181.73c-.7,4.43-1.43,9.3-2.1,14.32a21.16,21.16,0,0,1-.82-17.19Z" style="opacity:0.2;isolation:isolate"></path><path d="M410.47,161.05c4.78,2.2,20.31,33.35,19.28,50.94-1,17.14-27.75,38.51-27.75,38.51s-5.79-4.7-6.6-8.74c0,0,18.85-19.53,19.35-29.77.49-10.06-10.5-28-10.5-28s-1.25-7.5,1-14S410.47,161.05,410.47,161.05Z" style="fill:#407BFF"></path><path d="M410.47,161.05c4.78,2.2,20.31,33.35,19.28,50.94-1,17.14-27.75,38.51-27.75,38.51s-5.79-4.7-6.6-8.74c0,0,18.85-19.53,19.35-29.77.49-10.06-10.5-28-10.5-28s-1.25-7.5,1-14S410.47,161.05,410.47,161.05Z" style="fill:#fff;opacity:0.6000000000000001;isolation:isolate"></path><path d="M395.4,237.6s4.36,9.78,8,11.76c0,0,.79,3.31-2.38,7.81S385.63,246.2,395.4,237.6Z" style="fill:#407BFF"></path></g></g><g id="freepik--Character1--inject-9"><g id="freepik--group--inject-9"><polygon points="133.98 408.03 142.1 408.88 143.62 391.39 135.51 390.53 133.98 408.03" style="fill:#e4897b"></polygon><polygon points="93.5 407.44 101.36 407.44 102.02 389.23 94.14 389.23 93.5 407.44" style="fill:#e4897b"></polygon><path d="M102.45,406.53H92.9a.68.68,0,0,0-.67.54l-1.55,7a1.16,1.16,0,0,0,.9,1.37,1.07,1.07,0,0,0,.25,0c3.09-.05,5.34-.24,9.22-.24,2.39,0,9.6.25,12.9.25s3.73-3.26,2.38-3.56c-6.06-1.32-10.62-3.15-12.56-4.89A1.88,1.88,0,0,0,102.45,406.53Z" style="fill:#2e353a"></path><path d="M143,406.28H133.4a.68.68,0,0,0-.67.54l-1.55,7a1.16,1.16,0,0,0,.9,1.37,1.07,1.07,0,0,0,.25,0c3.09-.05,5.34-.24,9.22-.24,2.39,0,9.6.25,12.9.25s3.73-3.26,2.38-3.56c-6.06-1.32-10.62-3.15-12.56-4.89A1.88,1.88,0,0,0,143,406.28Z" style="fill:#2e353a"></path><path d="M144.36,403H132.83s.94-99.25-11.53-132.77c-.88,11.08-1.87,22.57-2.84,32.15-.61,5.93-1.21,11-1.78,14.91-3.63,25-12.79,86.71-12.79,86.71H92.5s1.35-59.14,2.7-83.7c1.49-26.67,2.13-85.3,2.19-90.3h41.72C143.08,251,153.26,335,144.36,403Z" style="fill:#263238"></path><path d="M144.36,403H132.83s.94-99.25-11.53-132.77c-.88,11.08-1.87,22.57-2.84,32.15-.61,5.93-1.21,11-1.78,14.91-3.63,25-12.79,86.71-12.79,86.71H92.5s1.35-59.14,2.7-83.7c1.49-26.67,2.13-85.3,2.19-90.3h41.72C143.08,251,153.26,335,144.36,403Z" style="fill:#fff;opacity:0.1;isolation:isolate"></path><path d="M133.63,167.91l-9.41-15.32a6.65,6.65,0,0,1-3.88-2.49c-1.45-2-2.36-10-1.67-10.34s8,.5,8.49,1.48,2,9.1,2,9.1L140,163.05Z" style="fill:#e4897b"></path><path d="M133.63,167.91l-9.41-15.32a6.65,6.65,0,0,1-3.88-2.49c-1.45-2-2.36-10-1.67-10.34s8,.5,8.49,1.48,2,9.1,2,9.1L140,163.05Z" style="opacity:0.2;isolation:isolate"></path><polygon points="136.26 155.31 133.84 152.88 125.76 158.88 126.52 162 136.26 155.31" style="fill:#407BFF"></polygon><polygon points="136.26 155.31 133.84 152.88 125.76 158.88 126.52 162 136.26 155.31" style="fill:#fff;opacity:0.6000000000000001;isolation:isolate"></polygon><path d="M129.92,158.49l6.34-3.91s18,24.34,20.17,36.42-22.1-14.08-22.1-14.08Z" style="fill:#407BFF"></path><path d="M90.29,161.09s-3.78,2.15-4.32,12.66c-.5,9.48,2.56,29.65,8.5,34.06,9.49,7,44-2.67,44-2.67L137.14,195s-26.12,3.46-32.34,0-8.08-21.21-8.08-21.21S94.11,162.18,90.29,161.09Z" style="fill:#407BFF"></path><path d="M90.29,161.09s-3.78,2.15-4.32,12.66c-.5,9.48,2.56,29.65,8.5,34.06,9.49,7,44-2.67,44-2.67L137.14,195s-26.12,3.46-32.34,0-8.08-21.21-8.08-21.21S94.11,162.18,90.29,161.09Z" style="opacity:0.2;isolation:isolate"></path><path d="M124.42,142.79a11.2,11.2,0,0,1-.52,1,11.06,11.06,0,0,1-6.25,5.09,9.85,9.85,0,0,1-11.29-3.81c-3.22-4.58-2.35-9.09-1.49-16.83a10.66,10.66,0,0,1,16.28-8C128.15,124.59,127.25,136.17,124.42,142.79Z" style="fill:#e4897b"></path><path d="M119.2,148.29a10.94,10.94,0,0,1-1.55.63,9.91,9.91,0,0,1-8.46-1A11.61,11.61,0,0,1,111,145.5,15.35,15.35,0,0,1,119.2,148.29Z" style="opacity:0.2;isolation:isolate"></path><path d="M104.09,158.25c3.83,3.48,13.21,2.19,13.21,2.19s5.85-1.6,4.63-3.43c-3.45-.57-5.13-2.18-5.82-4.24a10,10,0,0,1-.34-3.94c0-.73.16-1.47.28-2.2L104.46,138C106,143.71,107.84,154.14,104.09,158.25Z" style="fill:#e4897b"></path><path d="M123.33,125.83s2.17,7.32-5.33,12.58c0,0-3.15,6.76-4.91,7.59s-5.73.33-7.08,0-8.26-6.08-6.26-19.58,13.34-9.23,13.34-9.23,3.87-3.36,11.08.81C130.17,121.48,129,128,123.33,125.83Z" style="fill:#2e353a"></path><path d="M117,134.92a5,5,0,0,0,2,3.83c1.45.93,2.84-1.1,3-3.44.13-2.08-.44-5.13-2.18-5S116.79,132.76,117,134.92Z" style="fill:#e4897b"></path><path d="M104.09,155.75l1.16-4.5s11.47-1.53,16.74,3.55l-1.36,5.33Z" style="fill:#407BFF"></path><path d="M104.09,155.75l1.16-4.5s11.47-1.53,16.74,3.55l-1.36,5.33Z" style="fill:#fff;opacity:0.6000000000000001;isolation:isolate"></path><path d="M100.74,158.78l3.35-5.28s14.34-3.53,21.13,5S100.74,158.78,100.74,158.78Z" style="fill:#407BFF"></path><path d="M100.74,158.78l3.35-5.28s14.34-3.53,21.13,5S100.74,158.78,100.74,158.78Z" style="opacity:0.2;isolation:isolate"></path><path d="M125.22,197.64l17.93-1.25a6.67,6.67,0,0,1,4-2.28c2.49-.34,9.94,2.53,9.94,3.3s-4.14,6.85-5.24,6.85-9-2.49-9-2.49l-16.29,3.73Z" style="fill:#e4897b"></path><path d="M90.17,161a176.11,176.11,0,0,1,5,25.87c.33,2.68.6,5.31.82,7.86.29,3.24.49,6.36.65,9.32.2,3.75.26,8.18.25,12.54,0,10-3.39,30.34-3.39,30.34,8,2,33.75,1.91,49.74-1.44,1.64-12.83-1.24-34.87-1.86-45.91a210.22,210.22,0,0,0-2.65-23.93,100.56,100.56,0,0,0-2.83-12.52,8,8,0,0,0-6.63-5.51c-1.53-.19-3.3-.38-5.16-.49-.72,0-1.44-.07-2.17-.08a154.55,154.55,0,0,0-17.85,1.24c-1.11.13-2.25.3-3.35.48A102.46,102.46,0,0,0,90.17,161Z" style="fill:#407BFF"></path><path d="M132,158.49c9.46.76,28.06,31.69,24.56,38.41s-9.37,9.85-19.49-9.15S132,158.49,132,158.49Z" style="fill:#407BFF"></path><path d="M132,158.49c9.46.76,28.06,31.69,24.56,38.41s-9.37,9.85-19.49-9.15S132,158.49,132,158.49Z" style="opacity:0.2;isolation:isolate"></path><path d="M121.3,270.18c-.88,11.08-1.87,22.6-2.84,32.18-1.42-13.83-3.16-23.69-3.16-23.69s-1.63-1.34-6.11-8.49,0-20.5,0-20.5C109.05,262.08,121.3,270.18,121.3,270.18Z" style="opacity:0.2;isolation:isolate"></path><path d="M108,158.49a17.29,17.29,0,0,0-1,3.08,30.69,30.69,0,0,0-.6,3.66,43.44,43.44,0,0,0-.23,4.79,50.25,50.25,0,0,0,.38,5.66c.1,1,.31,2,.46,3.07s.41,2.1.62,3.18.43,2.19.62,3.32.34,2.28.51,3.43.29,2.32.43,3.49.25,2.35.37,3.53c.41,4.71.69,9.42.91,13.84s.27,8.56.35,12.1,0,6.49,0,8.55,0,3.25,0,3.25-.22-4.71-.54-11.78c-.16-3.54-.41-7.66-.66-12.07s-.59-9.11-1-13.8c-.11-1.17-.22-2.35-.32-3.51s-.27-2.33-.4-3.48l-.48-3.39c-.17-1.12-.39-2.23-.58-3.32s-.42-2.16-.58-3.21-.3-2.1-.37-3.12a50,50,0,0,1-.22-5.75,35.63,35.63,0,0,1,.42-4.83,29.2,29.2,0,0,1,.79-3.66A15.66,15.66,0,0,1,108,158.49Z" style="opacity:0.2;isolation:isolate"></path></g></g></svg>